<svg xmlns="http://www.w3.org/2000/svg" width="80" height="80" viewBox="0 0 80 80">
    <defs>
        <filter id="a" width="139.1%" height="139.1%" x="-19.5%" y="-18%" filterUnits="objectBoundingBox">
            <feOffset dy="1" in="SourceAlpha" result="shadowOffsetOuter1"/>
            <feGaussianBlur in="shadowOffsetOuter1" result="shadowBlurOuter1" stdDeviation="4"/>
            <feColorMatrix in="shadowBlurOuter1" result="shadowMatrixOuter1" values="0 0 0 0 0 0 0 0 0 0 0 0 0 0 0 0 0 0 0.2 0"/>
            <feMerge>
                <feMergeNode in="shadowMatrixOuter1"/>
                <feMergeNode in="SourceGraphic"/>
            </feMerge>
        </filter>
    </defs>
    <g fill="#FFF" fill-rule="evenodd" filter="url(#a)" transform="translate(7.744 7.18)">
        <path fill-rule="nonzero" d="M32 58.667c14.728 0 26.667-11.94 26.667-26.667 0-14.728-11.94-26.667-26.667-26.667C17.272 5.333 5.333 17.273 5.333 32c0 14.728 11.94 26.667 26.667 26.667zM32 64C14.327 64 0 49.673 0 32 0 14.327 14.327 0 32 0c17.673 0 32 14.327 32 32 0 17.673-14.327 32-32 32z"/>
        <path d="M45.333 32.267l-18.666 12v-24z"/>
    </g>
</svg>
