<?xml version="1.0" encoding="utf-8"?>
<!-- Generator: Adobe Illustrator 22.0.1, SVG Export Plug-In . SVG Version: 6.00 Build 0)  -->
<svg version="1.1" id="Layer_1" xmlns="http://www.w3.org/2000/svg" xmlns:xlink="http://www.w3.org/1999/xlink" x="0px" y="0px"
	 viewBox="0 0 75 64" style="enable-background:new 0 0 75 64;" xml:space="preserve">
<style type="text/css">
	.st0{fill:#00174D;}
</style>
<title>VD / Logo</title>
<desc>Created with Sketch.</desc>
<g id="Symbols">
	<g id="vd-_x2F_-nav-_x2F_-primary-1" transform="translate(-113.000000, -29.000000)">
		<g id="vd-_x2F_-asset-_x2F_-logo-_x2F_-white" transform="translate(120.000000, 36.000000)">
			<g id="Page-1">
				<path id="Fill-3" class="st0" d="M65.4,17.3l0.2,0l2.4-5.4c-1.4-1.9-3.3-3.3-5.5-4.2l-0.5,3.7C64,12.8,65.2,15,65.4,17.3"/>
				<path id="Fill-6" class="st0" d="M55-0.3l0.3,1c0.1,0.2,0.1,0.4,0.1,0.7l-0.6,5.4l-0.1,1.1L53.8,15l-0.2,2.1l-0.2,1.7
					c0.7,0.5,1.6,0.9,2.8,1.1c0.9,0.2,1.8,0.3,2.7,0.6l0.2-2l0.3-2.7l0.7-5.4l0.2-1.7l0.9-7.3c0-0.3,0.1-0.5,0.3-0.7l0.7-1H55z"/>
				<path id="Fill-8" class="st0" d="M11.2,5.4l-0.5-4c0-0.2,0-0.4,0.1-0.7l0.3-1H3.9l0.7,1c0.2,0.2,0.3,0.5,0.3,0.7l0.5,3.7
					c0.6,0,1.2-0.1,1.8-0.1C8.6,5.1,9.9,5.2,11.2,5.4"/>
				<path id="Fill-10" class="st0" d="M62.2,23.9c-0.4-0.2-0.8-0.4-1.3-0.6c-0.7-0.3-1.5-0.5-2.3-0.7c-0.8-0.2-1.6-0.3-2.5-0.5
					c-1.2-0.2-2.2-0.5-2.9-0.9c-1-0.5-1.6-1.1-2.1-1.7c-0.9-1.2-1-2.6-1-3.5c0.1-1.6,0.8-3.2,2-4.4l0.5-4.3c-1,0.3-1.9,0.7-2.8,1.1
					c-2.6,1.2-4.5,3.3-5.2,6.2c-1.4,4.6,1.1,9.7,5.7,11.8c0.7,0.3,1.4,0.6,2.2,0.7c0,0,0.1,0,0.1,0l0,0c0,0,1.2,0.2,2.2,0.5
					c0.1,0,0.3,0.1,0.4,0.1c1.1,0.3,2,0.7,2.7,1.1c0.7,0.4,1.3,0.8,1.8,1.3c1.7,1.7,1.7,3.6,1.4,4.8c-0.3,1.5-1.1,2.8-2.2,3.8
					l-0.6,4.7c0.7-0.2,1.4-0.4,2.1-0.6c3-0.9,5.4-2.8,6.6-5.8C69.1,32.2,67,26.6,62.2,23.9"/>
				<path id="Fill-12" class="st0" d="M44.2,31l-3.5,5.7c1.7,2.8,4.6,4.9,8,6.1l0.4-3.6C45.8,37.4,44,34.2,44.2,31"/>
				<path id="Fill-14" class="st0" d="M24.4,23.3c-1.1-8.3-4.9-12.4-9.1-14.4c-1.3-0.6-2.6-1-4-1.3c0,0,0,0,0,0
					c-0.5-0.1-1-0.2-1.4-0.2c0,0-0.1,0-0.1,0c-0.2,0-0.4,0-0.6-0.1c-0.1,0-0.1,0-0.2,0c-0.2,0-0.4,0-0.6,0c-0.1,0-0.1,0-0.2,0
					C5.7,7.1,3.5,7.4,2,7.6C1.4,7.7,1,7.8,0.7,7.9C-2.2,8.3-5,8.9-8,9.2c2.8,1.4,3.3,2.4,3.8,5.9c0.4,2.5,0.8,5.1,1.1,7.6
					c0.4,3,0.8,6,1.1,9c0.4,3.2,0.9,6.6,0.9,9.8c0,2.1-0.9,3-2.1,4.5c2.8-0.5,5.7-0.8,8.6-1.2c0.4-0.1,1.3-0.2,2.5-0.4L7.4,40
					c-0.8,0.1-1.5,0.2-2.3,0.3c0,0-0.4-1.2-2-14.4S1.5,11.9,1.5,11.9s0.5-0.1,1.4-0.3c0.8-0.1,1.9-0.2,3.2-0.2c0.3,0,0.6,0,1,0.1
					c0,0,0,0,0.1,0c0.3,0,0.6,0.1,0.9,0.1c0.1,0,0.1,0,0.2,0c0.3,0,0.6,0.1,0.8,0.2c0.1,0,0.2,0,0.2,0c0.4,0.1,0.7,0.2,1.1,0.3
					c0.3,0.1,0.5,0.2,0.8,0.3c0,0,0,0,0.1,0c0.3,0.1,0.5,0.2,0.8,0.3c1.1,0.5,2.2,1.3,3.1,2.3c1.6,1.8,2.9,4.4,3.4,8.5
					c0.8,5.6,0,9.4-1.9,11.9l0.6,5.2C21.8,37.8,25.7,32.6,24.4,23.3"/>
				<path id="Fill-16" class="st0" d="M54.3,29.6l-0.4-0.1c-0.6-0.2-1.3-0.3-1.7-0.4l-0.4,3.5l-0.8,7.2l-0.4,3.4l-0.6,5.8
					c-7.8,0-14.2-5.5-14.2-12.2V-4.5c0-0.3,0.1-0.6,0.2-0.8l0.6-1.1h-7.5L30-5.3c0.1,0.2,0.2,0.5,0.2,0.8v41.4
					c0,6.8-6.3,12.2-14.2,12.2l-0.8-7.2l-0.5-4.6l-2-18.2l-0.4-3.7c-0.9-0.6-1.8-1-2.6-1.2c-1-0.3-2.1-0.5-3.3-0.6l0.7,5.6l2.4,20.4
					l0.5,4.3l1.2,10.5l4.8,0c6.9,0,13.1-3,16.7-7.7h0.1h0.4h0.1c3.6,4.6,9.8,7.7,16.7,7.7l4.8,0l1.3-10.8l0.4-3.7l0.7-6.2l0.3-2.3
					C56.9,30.6,55.8,30,54.3,29.6"/>
			</g>
		</g>
	</g>
</g>
</svg>
