<?xml version="1.0" encoding="utf-8"?>
<!-- Generator: Adobe Illustrator 22.0.1, SVG Export Plug-In . SVG Version: 6.00 Build 0)  -->
<svg version="1.1" id="Layer_1" xmlns="http://www.w3.org/2000/svg" xmlns:xlink="http://www.w3.org/1999/xlink" x="0px" y="0px"
	 viewBox="0 0 98 35" style="enable-background:new 0 0 98 35;" xml:space="preserve">
<style type="text/css">
	.st0{clip-path:url(#SVGID_2_);fill:#00174D;}
	.st1{clip-path:url(#SVGID_4_);fill:#00174D;}
	.st2{clip-path:url(#SVGID_6_);fill:#00174D;}
</style>
<g>
	<g>
		<defs>
			<path id="SVGID_1_" d="M24.6,4.1C21.5,2,17.3,1,12.2,1H0c0.6,0.8,1,1.5,1.2,2c0.6,1.2,0.9,3.2,0.9,6v15.3c0,1.3-0.1,3.2-0.2,5.7
				c-0.2,1.3-0.4,2.3-0.8,3C1,33.5,0.6,34.2,0,35h1.8h0.4h10c3.4,0,6.2-0.4,8.5-1.2c2.3-0.8,4.3-2,6.1-3.7c2.8-2.7,4.2-6.9,4.2-12.5
				c0-4.1-0.9-7.4-2.8-10.1C27.3,6.2,26.1,5.1,24.6,4.1 M18.4,28.6c-1.4,1.2-2.9,1.8-4.7,1.8h-3v-25h1.2c1,0,1.9,0.1,2.8,0.2
				c2.7,0.5,4.4,1.5,5.3,3.2c1,2,1.6,4.7,1.6,8.1C21.5,23,20.5,26.9,18.4,28.6"/>
		</defs>
		<clipPath id="SVGID_2_">
			<use xlink:href="#SVGID_1_"  style="overflow:visible;"/>
		</clipPath>
		<rect x="-5" y="-4" class="st0" width="41" height="44"/>
	</g>
	<g>
		<defs>
			<path id="SVGID_3_" d="M59.6,20.9L55.7,5.5c-0.4-1.7-0.8-3.6-1.1-5.5h-9.1c0.4,1.1,1.5,5.3,1.8,6.1c0,0.1,0,0.2,0,0.3l-3.8,14.8
				L38.6,0H28c1.4,1,2.1,2.9,2.9,5.7L38.4,34h6.7l4.6-19l5.2,19h6.7C61.9,32.4,71,0,71,0h-6L59.6,20.9z"/>
		</defs>
		<clipPath id="SVGID_4_">
			<use xlink:href="#SVGID_3_"  style="overflow:visible;"/>
		</clipPath>
		<rect x="23" y="-5" class="st1" width="53" height="44"/>
	</g>
	<g>
		<defs>
			<path id="SVGID_5_" d="M96.6,18.9c-1.3-2.2-4.7-4.3-10.3-6.4c-3.1-1.2-4.6-2.6-4.6-4.4c0-0.7,0.3-1.3,0.8-1.9
				c0.9-1,2.3-1.5,4.4-1.5c2.1,0,4.2,0.5,6,1.6c0.4,0.2,1,0.6,1.8,1.1V1.1C92.6,0.4,90.4,0,88.2,0c-4.9,0-8.7,1.5-11.5,4.4
				C74.9,6.3,74,8.3,74,10.5c0,2.4,1.3,4.7,4,6.7c0.6,0.5,2.1,1.3,4.4,2.4c2.6,1.2,4,1.9,4.2,2c1.6,0.8,2.6,1.6,3,2.4
				c0.4,0.7,0.5,1.3,0.5,1.9c0,0.9-0.4,1.8-1.1,2.6c-1.1,1.2-2.8,1.9-5,1.9c-1.8,0-3.5-0.4-5.4-1.1c-1.2-0.5-2.7-1.4-4.5-2.7V33
				c3.1,1.3,6.6,2,10.5,2c1.7,0,3.4-0.3,5-0.8c1.9-0.6,3.6-1.5,4.9-2.6c2.2-1.9,3.4-4.4,3.4-7.5C98,22.2,97.5,20.5,96.6,18.9"/>
		</defs>
		<clipPath id="SVGID_6_">
			<use xlink:href="#SVGID_5_"  style="overflow:visible;"/>
		</clipPath>
		<rect x="69" y="-5" class="st2" width="34" height="45"/>
	</g>
</g>
</svg>
