<svg xmlns="http://www.w3.org/2000/svg" viewBox="10752 102 64.059 63.998"><defs><style>.a{fill:#005eb8;}</style></defs><path class="a" d="M60.1,0A75.588,75.588,0,0,1,43.923,2.008C36.075,2.008,32.06,0,32.06,0S27.984,2.008,20.2,2.008A75.589,75.589,0,0,1,4.015,0L0,4.015S4.015,11.5,4.015,23.421v8.03C4.015,55.481,22.57,61.26,32,64h0c9.429-2.8,28.045-8.517,28.045-32.547v-8.03c0-11.984,4.015-19.406,4.015-19.406ZM14.3,26.037a2.883,2.883,0,0,0,2.92-2.92v-1.7a2.961,2.961,0,0,1,2.92-2.92,2.887,2.887,0,0,1,2.92,2.738v1.886a2.961,2.961,0,0,0,2.92,2.92,2.921,2.921,0,0,0,2.92-2.92v-1.7a2.961,2.961,0,0,1,2.92-2.92,2.887,2.887,0,0,1,2.92,2.738v1.886a2.961,2.961,0,0,0,2.92,2.92,2.883,2.883,0,0,0,2.92-2.92v-1.7a2.961,2.961,0,0,1,2.92-2.92,2.887,2.887,0,0,1,2.92,2.738v1.886a2.961,2.961,0,0,0,2.92,2.92,2.883,2.883,0,0,0,2.92-2.92v-1.7a2.961,2.961,0,0,1,2.92-2.92,3.561,3.561,0,0,1,.791.122c-.122,1.521-.183,3.1-.183,4.806v6.57H7.969v-6.57c0-1.7-.061-3.346-.183-4.867a2.281,2.281,0,0,1,.669-.061,2.887,2.887,0,0,1,2.92,2.738v1.886A2.921,2.921,0,0,0,14.3,26.037ZM52.622,40.881v1.643A3.1,3.1,0,0,1,49.7,45.5a3.159,3.159,0,0,1-2.92-3.042V40.881a2.961,2.961,0,0,0-2.92-2.92h0a2.883,2.883,0,0,0-2.92,2.92v1.947a2.918,2.918,0,0,1-2.92,2.677,3.137,3.137,0,0,1-2.92-3.163v-1.46a2.961,2.961,0,0,0-2.92-2.92,2.883,2.883,0,0,0-2.92,2.92v1.643a3.1,3.1,0,0,1-2.92,2.981,3.137,3.137,0,0,1-2.92-3.163v-1.46a2.961,2.961,0,0,0-2.92-2.92,2.921,2.921,0,0,0-2.92,2.92v1.643a3.1,3.1,0,0,1-2.92,2.981,3.137,3.137,0,0,1-2.92-3.163v-1.46a2.949,2.949,0,0,0-2.859-2.92A27.872,27.872,0,0,1,8.4,33.946h48a27.868,27.868,0,0,1-.487,4.015A3.1,3.1,0,0,0,52.622,40.881ZM32.06,59.861c-4.076-1.217-10.159-3.224-15.026-7.239-.122-.122-.243-.183-.365-.3a2.944,2.944,0,0,0,.608-1.764v-1.7a2.961,2.961,0,0,1,2.92-2.92,2.887,2.887,0,0,1,2.92,2.738v1.886a2.961,2.961,0,0,0,2.92,2.92,2.883,2.883,0,0,0,2.92-2.92v-1.7a2.961,2.961,0,0,1,2.92-2.92,2.887,2.887,0,0,1,2.92,2.738v1.886a2.961,2.961,0,0,0,2.92,2.92,2.883,2.883,0,0,0,2.92-2.92v-1.7a2.961,2.961,0,0,1,2.92-2.92,2.887,2.887,0,0,1,2.92,2.738v1.886a2.809,2.809,0,0,0,.669,1.825c-.122.061-.183.182-.3.243C42.219,56.637,36.136,58.645,32.06,59.861ZM57.489,11.254a2.853,2.853,0,0,0-1.886-.669,2.883,2.883,0,0,0-2.92,2.92v1.643a3.1,3.1,0,0,1-2.92,2.981,3.159,3.159,0,0,1-2.92-3.042V13.505a2.961,2.961,0,0,0-2.92-2.92h0A2.883,2.883,0,0,0,41,13.505v1.947a2.918,2.918,0,0,1-2.92,2.677,3.137,3.137,0,0,1-2.92-3.163v-1.46a2.961,2.961,0,0,0-2.92-2.92,2.883,2.883,0,0,0-2.92,2.92v1.643a3.1,3.1,0,0,1-2.92,2.981,3.137,3.137,0,0,1-2.92-3.163v-1.46a2.961,2.961,0,0,0-2.92-2.92,2.883,2.883,0,0,0-2.92,2.92v1.643a3.1,3.1,0,0,1-2.92,2.981,3.137,3.137,0,0,1-2.92-3.163v-1.46a2.961,2.961,0,0,0-2.92-2.92,3.128,3.128,0,0,0-1.825.608A54.686,54.686,0,0,0,5.171,4.928l.548-.548a78.976,78.976,0,0,0,14.9,1.643,36.962,36.962,0,0,0,11.863-1.7,36.962,36.962,0,0,0,11.863,1.7,74.19,74.19,0,0,0,14.9-1.643l.548.548A20.358,20.358,0,0,0,57.489,11.254Z" transform="translate(10752 102)"/></svg>