<svg xmlns="http://www.w3.org/2000/svg" viewBox="2577 1630 184.5 35.965"><defs><style>.a{fill:#fff;}</style></defs><g transform="translate(2537 43)"><g transform="translate(40 1587)"><g transform="translate(0 13.518)"><path class="a" d="M27.621,37.88V26.364a13.645,13.645,0,0,0-.167-1.836,5.034,5.034,0,0,0-.5-1.585,3.125,3.125,0,0,0-1-1.085,3.287,3.287,0,0,0-1.669-.417,3.879,3.879,0,0,0-1.752.417,3.928,3.928,0,0,0-1.252,1.085,5.534,5.534,0,0,0-.751,1.585,6.508,6.508,0,0,0-.25,1.836V37.8H13.685V25.78a5.638,5.638,0,0,0-.751-3.088,2.865,2.865,0,0,0-2.587-1.168A3.3,3.3,0,0,0,7.51,22.943a5.721,5.721,0,0,0-1,3.421V37.8H0V16.768H6.342v3.338h.167a5.111,5.111,0,0,1,.334-.5,13.149,13.149,0,0,1,1-1.252,5.828,5.828,0,0,1,1.335-1.085,5.563,5.563,0,0,1,1.752-.751,9.072,9.072,0,0,1,2.17-.334,7.911,7.911,0,0,1,3.839.918,6.587,6.587,0,0,1,2.42,2.587l.25.417.25-.417a7.21,7.21,0,0,1,2.67-2.587,7.508,7.508,0,0,1,4.005-1,7.862,7.862,0,0,1,3.588.751,6.8,6.8,0,0,1,2.337,2,8.248,8.248,0,0,1,1.252,2.754,13,13,0,0,1,.417,3v13.1H27.621Z" transform="translate(0 -16.1)"/><rect class="a" width="6.592" height="21.028" transform="translate(39.303 0.668)"/><path class="a" d="M118.849,38.564a14.072,14.072,0,0,1-4.673-.751,10.748,10.748,0,0,1-3.755-2.253,10.394,10.394,0,0,1-2.5-3.5A11.664,11.664,0,0,1,107,27.382a11.965,11.965,0,0,1,.918-4.673,8.981,8.981,0,0,1,2.5-3.5,10.748,10.748,0,0,1,3.755-2.253,14.072,14.072,0,0,1,4.673-.751,10.358,10.358,0,0,1,2.253.25,16.467,16.467,0,0,1,2.17.584,8.122,8.122,0,0,1,1.919.918c.5.334.918.668,1.335,1l-3.755,4.339a4.953,4.953,0,0,0-1.5-1.085,5.508,5.508,0,0,0-2.253-.5,4.869,4.869,0,0,0-2.17.5,6.252,6.252,0,0,0-1.669,1.252,6.671,6.671,0,0,0-1.085,1.836,6.371,6.371,0,0,0-.417,2.253,7.028,7.028,0,0,0,.334,2.253,5.1,5.1,0,0,0,1.085,1.836,6.252,6.252,0,0,0,1.669,1.252,4.942,4.942,0,0,0,2.253.417,7.154,7.154,0,0,0,2.253-.417,4.307,4.307,0,0,0,1.585-1l3.588,4.339a10.568,10.568,0,0,1-3.171,1.836A23.866,23.866,0,0,1,118.849,38.564Z" transform="translate(-17.712 -16.117)"/><path class="a" d="M143.783,38.547a11.688,11.688,0,0,1-4.506-.834,12.17,12.17,0,0,1-3.755-2.253,9.947,9.947,0,0,1-2.5-3.588A12.277,12.277,0,0,1,132.1,27.2a11.964,11.964,0,0,1,.918-4.673,10.73,10.73,0,0,1,2.5-3.5,11.965,11.965,0,0,1,3.755-2.17,13.44,13.44,0,0,1,4.506-.751,13.931,13.931,0,0,1,4.59.751,11.965,11.965,0,0,1,3.755,2.17,9.635,9.635,0,0,1,2.5,3.5,11.664,11.664,0,0,1,.918,4.673,11.964,11.964,0,0,1-.918,4.673,11.089,11.089,0,0,1-2.5,3.588,10.748,10.748,0,0,1-3.755,2.253A11.819,11.819,0,0,1,143.783,38.547Zm0-17.107a5.081,5.081,0,0,0-2.337.5,4.393,4.393,0,0,0-1.669,1.335,6.476,6.476,0,0,0-1,1.836,6.064,6.064,0,0,0-.334,2.086,5.762,5.762,0,0,0,.334,2.086,8.408,8.408,0,0,0,1,1.919,4.392,4.392,0,0,0,1.669,1.335,5.7,5.7,0,0,0,4.673,0,4.393,4.393,0,0,0,1.669-1.335,5.277,5.277,0,0,0,1-1.919,6.064,6.064,0,0,0,.334-2.086,5.762,5.762,0,0,0-.334-2.086,5.1,5.1,0,0,0-1.085-1.836,5.359,5.359,0,0,0-1.669-1.335A4.5,4.5,0,0,0,143.783,21.441Z" transform="translate(-21.867 -16.1)"/><path class="a" d="M165.2,37.9V16.868h6.342v3.088h.167l.083-.167a7.671,7.671,0,0,1,2.587-2.587,5.823,5.823,0,0,1,3.338-1h.834a.625.625,0,0,1,.417.083l-.25,5.758a1.837,1.837,0,0,0-.668-.083c-.334,0-.584-.083-.918-.083a4.639,4.639,0,0,0-2.5.584,5.359,5.359,0,0,0-1.669,1.335,4.706,4.706,0,0,0-.918,1.669,6.163,6.163,0,0,0-.25,1.585V37.813H165.2Z" transform="translate(-27.347 -16.117)"/></g><path class="a" d="M192.9,35.782a9.959,9.959,0,0,1-4.256-.918,9.183,9.183,0,0,1-3.171-2.5,12.472,12.472,0,0,1-2-3.588,13.9,13.9,0,0,1,0-8.512,12.005,12.005,0,0,1,2-3.5,9.7,9.7,0,0,1,3.088-2.42,9.483,9.483,0,0,1,4.089-.918,8.251,8.251,0,0,1,3.922.918,8.954,8.954,0,0,1,2.5,1.919l.918,1.085V8.412a9.078,9.078,0,0,1,.584-3.338,8.028,8.028,0,0,1,1.669-2.67A8.508,8.508,0,0,1,204.83.568,8.4,8.4,0,0,1,208.084-.1a7.05,7.05,0,0,1,2.754.5,5.975,5.975,0,0,1,2.086,1.335,6.475,6.475,0,0,1,1.335,2,6.919,6.919,0,0,1,.5,2.67,11.585,11.585,0,0,1-2,6.342,32.576,32.576,0,0,1-6.342,6.592l-.083.083V35.2h-6.008V32.361h-.083l-.083.083a8.564,8.564,0,0,1-3,2.42A9.552,9.552,0,0,1,192.9,35.782Zm1.669-17.023a5.331,5.331,0,0,0-2.337.5,4.393,4.393,0,0,0-1.669,1.335,4.92,4.92,0,0,0-1,1.836,6.064,6.064,0,0,0-.334,2.086,6.876,6.876,0,0,0,.334,2.17,6.976,6.976,0,0,0,1,1.919,4.393,4.393,0,0,0,1.669,1.335,5.08,5.08,0,0,0,2.337.5,4.968,4.968,0,0,0,2.253-.5,4.393,4.393,0,0,0,1.669-1.335,5.1,5.1,0,0,0,1.085-1.836,6.268,6.268,0,0,0,.417-2.17,6.663,6.663,0,0,0-.417-2.17,5.1,5.1,0,0,0-1.085-1.836,6.19,6.19,0,0,0-1.669-1.335A4.728,4.728,0,0,0,194.566,18.759ZM208.084,3.905a1.565,1.565,0,0,0-1.335,1,4.5,4.5,0,0,0-.5,2.253v7.427l.417-.5a10.093,10.093,0,0,0,2.42-3.588,11.383,11.383,0,0,0,.668-3.672,5.042,5.042,0,0,0-.417-2A1.252,1.252,0,0,0,208.084,3.905Z" transform="translate(-30.26 0.1)"/><path class="a" d="M88.9,37.88V26.364a13.646,13.646,0,0,0-.167-1.836,5.034,5.034,0,0,0-.5-1.585,3.125,3.125,0,0,0-1-1.085,3.287,3.287,0,0,0-1.669-.417,3.879,3.879,0,0,0-1.752.417,3.929,3.929,0,0,0-1.252,1.085,5.534,5.534,0,0,0-.751,1.585,6.508,6.508,0,0,0-.25,1.836V37.8H74.969V25.78a5.638,5.638,0,0,0-.751-3.088,2.865,2.865,0,0,0-2.587-1.168,3.3,3.3,0,0,0-2.837,1.419,5.721,5.721,0,0,0-1,3.421V37.8H61.2V16.768h6.509v3.338h.167a5.112,5.112,0,0,1,.334-.5,13.15,13.15,0,0,1,1-1.252,5.828,5.828,0,0,1,1.335-1.085,5.563,5.563,0,0,1,1.752-.751,9.072,9.072,0,0,1,2.17-.334,7.911,7.911,0,0,1,3.839.918,6.587,6.587,0,0,1,2.42,2.587l.25.417.25-.417A7.21,7.21,0,0,1,83.9,17.1a7.508,7.508,0,0,1,4.005-1,7.862,7.862,0,0,1,3.588.751,6.8,6.8,0,0,1,2.337,2,8.248,8.248,0,0,1,1.252,2.754,13,13,0,0,1,.417,3v13.1H88.9Z" transform="translate(-10.131 -2.582)"/></g></g></svg>