<svg xmlns="http://www.w3.org/2000/svg" viewBox="3808.298 2083 44.1 60.044">
  <defs>
    <style>
      .cls-1 {
        fill: #fff;
      }
    </style>
  </defs>
  <g id="Symbol_6_14" data-name="Symbol 6 – 14" transform="translate(2628.298 563)">
    <path id="Path_131" data-name="Path 131" class="cls-1" d="M44.1,4.3a3.57,3.57,0,0,0-2-3.5A8.873,8.873,0,0,0,38.9,0H4.7C1.9.1,0,1.8,0,4.2V55.9a3.393,3.393,0,0,0,1.8,3.2,8.645,8.645,0,0,0,3.5.9c11.2.1,22.4,0,33.6,0a5.7,5.7,0,0,0,1.3-.1,4.029,4.029,0,0,0,3.9-4.4V4.3ZM42.7,55.6c0,1.9-1.3,3-3.5,3H5.3a7.117,7.117,0,0,1-2.1-.4,2.314,2.314,0,0,1-1.7-2.5V4.7a2.811,2.811,0,0,1,3-3.1H38.8a12.31,12.31,0,0,1,2,.2,2.372,2.372,0,0,1,2,2.7C42.7,21.5,42.7,38.6,42.7,55.6Z" transform="translate(1180 1520)"/>
    <path id="Path_132" data-name="Path 132" class="cls-1" d="M20.4,38.1c7.2-1.2,12.4-5.1,15.3-11.8,1.2-2.8,1.1-2-1-4.2-1.4,1.4-2.8,2.5-3.7,4.3a15.414,15.414,0,0,1-8.8,8,12.055,12.055,0,0,1-9.5.1C9.1,33,7.3,29.6,7.5,25V23.1c-1.3,2.4-1.1,6.6.3,9.2A11.911,11.911,0,0,0,20.4,38.1Z" transform="translate(1180 1520)"/>
    <path id="Path_133" data-name="Path 133" class="cls-1" d="M11.5,27.3a1.165,1.165,0,0,1,.8,1.2v2.8h3.1a20.833,20.833,0,0,0,0-2.5c-.1-.8.2-1.1.9-1.4a5.245,5.245,0,0,0,3.2-4.6,5.416,5.416,0,0,0-4.4-5.6A5.564,5.564,0,0,0,8.7,21,5.282,5.282,0,0,0,11.5,27.3Z" transform="translate(1180 1520)"/>
    <path id="Path_134" data-name="Path 134" class="cls-1" d="M21.7,30.5c0,.3.3.7.5.7a22.477,22.477,0,0,0,2.6,0V27.9h4.5c-2-4.2-4-8.1-6-12.3-1,1.8-1.8,3.4-2.6,5a2.769,2.769,0,0,0-.1.9,6.125,6.125,0,0,1-2.2,5.4,5.5,5.5,0,0,0-.9.7c0,.1.1.2.1.3h4.2C21.7,29,21.7,29.8,21.7,30.5Z" transform="translate(1180 1520)"/>
    <path id="Path_135" data-name="Path 135" class="cls-1" d="M12.3,15.9A15.546,15.546,0,0,1,22,11.3c4.7-.5,9.7,1.9,10.6,7.5a22.77,22.77,0,0,1,0,3.7c1-.9,1.8-1.6,2.6-2.4.6.6,1.1,1.2,1.6,1.8.1,0,.2-.1.3-.1V20.2A10.449,10.449,0,0,0,28.7,9.6c-5-1.1-9.4.2-13.5,3-1.6,1.1-2.9,2.5-4.4,3.7a1.38,1.38,0,0,1,.3.4C11.5,16.4,11.9,16.2,12.3,15.9Z" transform="translate(1180 1520)"/>
    <path id="Path_136" data-name="Path 136" class="cls-1" d="M21.1,40.7H14.9v6.8H21V45.8H16.9v-1a26.152,26.152,0,0,1,2.8,0V43.1H17v-.9h4.1V40.7Z" transform="translate(1180 1520)"/>
    <path id="Path_137" data-name="Path 137" class="cls-1" d="M11.3,40.8a38.437,38.437,0,0,0-4.8,0v1.6c.9,0,4.6-.3,4.6.7,0,.9-2.3.8-3,.8H6.5v3.7H8.3V45.8c1-.1,2.1-.1,2.9-.2a2.335,2.335,0,0,0,1.9-2.3C13.1,41.9,12.5,40.9,11.3,40.8Z" transform="translate(1180 1520)"/>
    <path id="Path_138" data-name="Path 138" class="cls-1" d="M35,45.8a1.726,1.726,0,0,1-2.4-.7,2.335,2.335,0,0,1,0-2,1.726,1.726,0,0,1,2.4-.7c1.1.7,1.6,0,2.4-.6a4.507,4.507,0,0,0-6.2-.2,3.383,3.383,0,0,0,0,4.9,4.414,4.414,0,0,0,6.2-.2C36.6,46,36.1,45.1,35,45.8Z" transform="translate(1180 1520)"/>
    <path id="Path_139" data-name="Path 139" class="cls-1" d="M27.9,44.9V43.3H25.2v-1h4.1V40.7H23.1v6.8H25V44.9h2.9Z" transform="translate(1180 1520)"/>
    <path id="Path_140" data-name="Path 140" class="cls-1" d="M7.6,50H6.4v4.2h.4v-2h.8c.9,0,1.4-.4,1.4-1.1S8.4,50,7.6,50Zm-.1,1.9H6.8V50.4h.7c.7,0,1,.2,1,.8C8.6,51.6,8.2,51.9,7.5,51.9Z" transform="translate(1180 1520)"/>
    <path id="Path_141" data-name="Path 141" class="cls-1" d="M10.3,52.2h2v-.4h-2V50.4h2.2V50H9.8v4.2h2.7v-.4H10.3Z" transform="translate(1180 1520)"/>
    <path id="Path_142" data-name="Path 142" class="cls-1" d="M13.4,54.2h.4v-2h2v-.4h-2V50.4h2.1V50H13.4Z" transform="translate(1180 1520)"/>
    <path id="Path_143" data-name="Path 143" class="cls-1" d="M18.7,54a1.9,1.9,0,0,1,0-3.8,1.22,1.22,0,0,1,1.1.6l.4-.3a1.955,1.955,0,0,0-1.5-.7,2.2,2.2,0,1,0,0,4.4,1.923,1.923,0,0,0,1.6-.8l-.3-.1A1.457,1.457,0,0,1,18.7,54Z" transform="translate(1180 1520)"/>
    <path id="Path_144" data-name="Path 144" class="cls-1" d="M20.5,54.2l.4.1L22.7,50l-.3-.1Z" transform="translate(1180 1520)"/>
    <path id="Path_145" data-name="Path 145" class="cls-1" d="M23.4,50.9l.3.3.7-.7v3.7h.5V50h-.4Z" transform="translate(1180 1520)"/>
    <path id="Path_146" data-name="Path 146" class="cls-1" d="M28.8,50h-.6l-1.8,2.8v.4h1.9v1h.4v-1h.6v-.4h-.6V50Zm-.4,2.8H26.9l1.5-2.4h0Z" transform="translate(1180 1520)"/>
    <path id="Path_147" data-name="Path 147" class="cls-1" d="M30.4,50.9l.2.3.8-.7v3.7h.4V50h-.3Z" transform="translate(1180 1520)"/>
    <path id="Path_148" data-name="Path 148" class="cls-1" d="M33.9,50.9l.2.3.8-.7v3.7h.4V50h-.4Z" transform="translate(1180 1520)"/>
  </g>
</svg>
