<svg xmlns="http://www.w3.org/2000/svg" viewBox="3739 2083 49.298 59.726">
  <defs>
    <style>
      .cls-1 {
        fill: #fff;
      }
    </style>
  </defs>
  <g id="Symbol_5_14" data-name="Symbol 5 – 14" transform="translate(2484.298 563)">
    <path id="Path_20" data-name="Path 20" class="cls-1" d="M35.9,36.2a10.04,10.04,0,0,0,6.4.7,8.908,8.908,0,0,0,4.3-15.1,1.919,1.919,0,0,1-.6-2A10.007,10.007,0,0,0,41.5,8.9a4.673,4.673,0,0,1-1.4-1.4C39.3,6.4,38.7,5,37.8,4A11.186,11.186,0,0,0,22.6,2.2c-3.2,2.4-5.1,5.7-6.7,9.2a111,111,0,0,0-5.8,17.7c-.4,1.5-.8,2.9-1.3,4.6C8.1,33,7.6,32.4,7,31.9c-1.4-1.3-2.7-2.7-4.1-4a1.529,1.529,0,0,0-2.3.2,1.419,1.419,0,0,0-.1,2.2c2.7,2.8,5.4,5.6,8.2,8.3a1.884,1.884,0,0,0,3.2-1.2,62.064,62.064,0,0,1,1.4-6.2C15,25.6,16.7,20,18.7,14.5c1.3-3.5,3-6.9,6.1-9.3a6.871,6.871,0,0,1,7.4-1,6.571,6.571,0,0,1,4.2,5.4,1.287,1.287,0,0,0,1.1,1.3,6.7,6.7,0,0,1,4.1,10c-.5.8-.1,1.1.5,1.5,2.1,1.5,3.8,3.3,3.5,6.1-.2,2.4-2.4,5.1-5,4.7a49.447,49.447,0,0,1-5.5-1.5c-2.6-.8-3.4-.2-3.4,2.4,0,1.7-.1,3.5-.2,5.2H27.1V33.7a2.16,2.16,0,0,0-2.8-2.3c-1.6.3-3.2.5-4.9.7-1.3.2-2.1,1-1.9,2.2A2,2,0,0,0,20,35.8a23.568,23.568,0,0,1,2.9-.3c.2,1.9.3,3.6.4,5.3.1,1.6.7,2.4,2.1,2.4,2.5.1,4.9.2,7.4.1,1.6-.1,2.5-.7,2.4-2.7-.1-1.5,0-3,0-4.6A6.371,6.371,0,0,1,35.9,36.2Z" transform="translate(1254.679 1519.991)"/>
    <path id="Path_21" data-name="Path 21" class="cls-1" d="M20.2,47.6c-3.5-.1-7,0-10.5,0-.3,0-.5.3-.8.5.3.1.5.4.8.4,1.1,0,1.6.6,1.5,1.7-.1,2.2,0,4.4,0,6.5v1.7a6.958,6.958,0,0,0-1.6.2c-.3.1-.7.3-.7.6s.4.5.7.5h6.9c.1-.8.1-.8-2.5-1.3V54.2h1.1c1.3,0,2.5-.1,2.8,1.6,0,.2.5.3,1,.5V52c0-.3-.3-.6-.5-.9l-.8.8c-.4.4-.7,1-1.2,1.1a9.246,9.246,0,0,1-2.4.1V49.4a1.12,1.12,0,0,1,.7-.8c2.1-.2,4.2-.3,6,1.4a2.424,2.424,0,0,0,1,.6c.1-.1.5-.2.6-.3a15.386,15.386,0,0,0-.8-1.9A2.321,2.321,0,0,0,20.2,47.6Z" transform="translate(1254.679 1519.991)"/>
    <path id="Path_22" data-name="Path 22" class="cls-1" d="M33.9,54.8a12.419,12.419,0,0,0-2.3-1.7c-1.3-.7-2.6-1.3-3.9-2.1-1-.7-.9-1.5.1-2.2a3.207,3.207,0,0,1,4.5,1.4c.3.7.9.8,1.1.4a5.339,5.339,0,0,0,.2-2.2c0-.3-.5-.7-.8-.7a38.734,38.734,0,0,0-5.9,0c-1.2.1-2.6.6-2.8,2.1-.2,1.4.8,2.1,1.8,2.6l4.8,2.7c.7.4,1.4,1.2.9,2a2.564,2.564,0,0,1-1.8,1.2c-2,.3-3.8-.1-4.9-2.2-.1-.3-.6-.3-1-.5a3.81,3.81,0,0,0-.3,1,7.491,7.491,0,0,0,.4,1.6,1.562,1.562,0,0,0,.8.8,24.932,24.932,0,0,0,2.9.7,7.324,7.324,0,0,0,5.6-1.5,2.067,2.067,0,0,0,1-3Z" transform="translate(1254.679 1519.991)"/>
    <path id="Path_23" data-name="Path 23" class="cls-1" d="M47.4,58a6.914,6.914,0,0,1-5.8-.2A4.692,4.692,0,0,1,38.9,53c.2-2.4,1.4-3.8,4-4.5,1.9-.5,3.3,0,4.6,1.8a.713.713,0,0,0,.6.3.664.664,0,0,0,.4-.5,5.438,5.438,0,0,0,0-1.8c0-.2-.4-.5-.6-.6A13.713,13.713,0,0,0,39,49a5.259,5.259,0,0,0-.8,8.9c2.2,1.9,4.9,2.1,7.6,1.6a24.575,24.575,0,0,0,2.9-.9c0-.2-.1-.4-.1-.6A1.65,1.65,0,0,0,47.4,58Z" transform="translate(1254.679 1519.991)"/>
    <path id="Path_24" data-name="Path 24" class="cls-1" d="M45.9,3.2h.4L47,4.4h.6l-.7-1.2a.661.661,0,0,0,.6-.7c0-.6-.5-.8-1-.8h-1V4.5H46V3.2Zm0-1.1h.5c.3,0,.6.1.6.4s-.3.4-.6.4H46V2.1Z" transform="translate(1254.679 1519.991)"/>
    <path id="Path_25" data-name="Path 25" class="cls-1" d="M46.4,5.5a2.456,2.456,0,0,0,2.5-2.4,2.5,2.5,0,0,0-5,0A2.456,2.456,0,0,0,46.4,5.5Zm0-4.6A2.051,2.051,0,0,1,48.5,3a2.112,2.112,0,0,1-2.1,2.1A2.051,2.051,0,0,1,44.3,3,2.112,2.112,0,0,1,46.4.9Z" transform="translate(1254.679 1519.991)"/>
  </g>
</svg>
