<svg xmlns="http://www.w3.org/2000/svg" viewBox="3872.298 2005.094 60 137.906">
  <defs>
    <style>
      .cls-1 {
        fill: #fff;
      }
    </style>
  </defs>
  <g id="Symbol_7_14" data-name="Symbol 7 – 14" transform="translate(2628.298 487)">
    <g id="Group_83" data-name="Group 83" transform="translate(1244 1518.1)">
      <path id="Path_45" data-name="Path 45" class="cls-1" d="M46.8,22.9v-3c0-.4.1-.5.5-.5.9.1,1.8.3,2.7.4l1.8.3c1.5.3,2.9.5,4.4.8,1.1.2,2.2.5,3.3.8a.666.666,0,0,1,.5.7v6.1c-.1.1-.2.2-.3.2a18.915,18.915,0,0,0-2.3-.5l-3-.6c-.6-.1-1.2-.3-1.8-.4-.7-.1-1.4-.3-2.1-.4-1.1-.2-2.3-.4-3.4-.5-.3,0-.3-.3-.3-.5,0-.9,0-1.9,0-2.9Z"/>
      <path id="Path_46" data-name="Path 46" class="cls-1" d="M17.9,22.8v3c0,.4-.1.5-.5.5a29.31,29.31,0,0,0-2.9.5c-1.7.3-3.3.6-5,1-1,.2-2,.4-3.1.6-.4.1-.7.2-1.1.3-.2.1-.3-.1-.3-.4V22.1c0-.1.2-.3.3-.4,1.4-.3,2.8-.7,4.2-1,1.6-.3,3.3-.6,4.9-.9.9-.2,1.8-.3,2.7-.5.7-.1.7-.1.7.6.1,1,.1,2,.1,2.9Z"/>
      <path id="Path_47" data-name="Path 47" class="cls-1" d="M14.2,16.6a3.152,3.152,0,0,1-.1-6.3,3.021,3.021,0,0,1,3.2,3.3A2.913,2.913,0,0,1,14.2,16.6Z"/>
      <path id="Path_48" data-name="Path 48" class="cls-1" d="M50.7,30.9a3.188,3.188,0,0,1,3,3.2,3.262,3.262,0,0,1-3.2,3,3.322,3.322,0,0,1-3.1-3.4C47.6,32.4,48.9,30.6,50.7,30.9Z"/>
      <path id="Path_49" data-name="Path 49" class="cls-1" d="M20.6,3.5a3.033,3.033,0,0,1,2.9,3.2,2.956,2.956,0,0,1-3.2,2.7,2.85,2.85,0,0,1-2.8-3.1A2.767,2.767,0,0,1,20.6,3.5Z"/>
      <path id="Path_50" data-name="Path 50" class="cls-1" d="M41.6,40.8c0-1.9,1.3-3,3.4-2.9a2.469,2.469,0,0,1,1.6.8,3.238,3.238,0,0,1,.9,2.5,2.984,2.984,0,0,1-3.1,2.6A2.842,2.842,0,0,1,41.6,40.8Z"/>
      <path id="Path_51" data-name="Path 51" class="cls-1" d="M30.6,22.1v-3c0-.4.1-.5.5-.5h2.5c.3,0,.5.1.5.5v6.1c0,.3-.1.4-.4.4H31c-.3,0-.4-.1-.4-.4a16.044,16.044,0,0,0,0-3.1Z"/>
      <path id="Path_52" data-name="Path 52" class="cls-1" d="M22.6,22.4V19.3c0-.2,0-.4.3-.4.8-.1,1.6-.1,2.4-.2.7,0,.7,0,.7.7v5.7c0,.4-.1.6-.6.6a22.752,22.752,0,0,0-2.6.2c-.3,0-.3-.2-.3-.4.1-1.1.1-2.1.1-3.1Z"/>
      <path id="Path_53" data-name="Path 53" class="cls-1" d="M28.7,0a2.682,2.682,0,0,1,2.6,3,2.807,2.807,0,0,1-2.8,2.5,2.749,2.749,0,0,1-2.7-3A2.981,2.981,0,0,1,28.7,0Z"/>
      <path id="Path_54" data-name="Path 54" class="cls-1" d="M39.2,44.5a2.625,2.625,0,0,1-2.7,2.7,2.708,2.708,0,0,1-2.7-2.8,2.772,2.772,0,0,1,2.8-2.7A2.906,2.906,0,0,1,39.2,44.5Z"/>
      <path id="Path_55" data-name="Path 55" class="cls-1" d="M42.2,22.3v3c0,.4-.1.5-.5.5-.8-.1-1.6-.1-2.5-.2a.366.366,0,0,1-.4-.4V19c0-.3.1-.4.4-.4.9.1,1.8.1,2.7.2.1,0,.2.3.3.4Z"/>
      <path id="Path_56" data-name="Path 56" class="cls-1" d="M30.2,44.8a2.4,2.4,0,1,1-4.8,0,2.4,2.4,0,1,1,4.8,0Z"/>
      <path id="Path_57" data-name="Path 57" class="cls-1" d="M35.1,2.7A2.433,2.433,0,0,1,37.5.3,2.505,2.505,0,0,1,39.9,3a2.438,2.438,0,0,1-2.5,2.3A2.539,2.539,0,0,1,35.1,2.7Z"/>
      <path id="Path_58" data-name="Path 58" class="cls-1" d="M47.2,6a2.151,2.151,0,1,1-4.3-.1,2.227,2.227,0,0,1,2.3-2.1A2.191,2.191,0,0,1,47.2,6Z"/>
      <path id="Path_59" data-name="Path 59" class="cls-1" d="M22.2,41.8a1.994,1.994,0,0,1-2.1,2.1,2.356,2.356,0,0,1-2.2-2.1,2.2,2.2,0,0,1,2.2-2.1A1.994,1.994,0,0,1,22.2,41.8Z"/>
      <path id="Path_60" data-name="Path 60" class="cls-1" d="M14.2,38a1.733,1.733,0,0,1-1.8-1.8,1.781,1.781,0,0,1,1.9-1.9,2.022,2.022,0,0,1,1.8,1.8A1.888,1.888,0,0,1,14.2,38Z"/>
      <path id="Path_61" data-name="Path 61" class="cls-1" d="M52.6,11.5a1.855,1.855,0,0,1-1.8,1.8,2.053,2.053,0,0,1-2-1.8,1.965,1.965,0,0,1,1.9-1.9A1.837,1.837,0,0,1,52.6,11.5Z"/>
    </g>
    <g id="Group_84" data-name="Group 84" transform="translate(1244 1518.1)">
      <path id="Path_62" data-name="Path 62" class="cls-1" d="M3.6,62.9a5.019,5.019,0,0,1,1.2.2,2.075,2.075,0,0,1,1,.6,2.075,2.075,0,0,1,.6,1,3.178,3.178,0,0,1,.2,1.4,5.067,5.067,0,0,1-.2,1.3,2.384,2.384,0,0,1-.6,1.1,5.5,5.5,0,0,1-.9.7,2.768,2.768,0,0,1-1.3.3H.7V62.9Zm-.1,5.4a1.268,1.268,0,0,0,.6-.1,2.186,2.186,0,0,0,.5-.3,2.092,2.092,0,0,0,.4-.6,4.1,4.1,0,0,0,0-1.8,4.875,4.875,0,0,0-.3-.7.918.918,0,0,0-.6-.4,2,2,0,0,0-.9-.2h-1v4.2H3.5Z"/>
      <path id="Path_63" data-name="Path 63" class="cls-1" d="M7.5,64V62.9H8.8V64Zm1.3.8v4.8H7.5V64.8Z"/>
      <path id="Path_64" data-name="Path 64" class="cls-1" d="M11,68.4c.1.1.1.2.2.3a.367.367,0,0,0,.3.1h.7c.1,0,.2-.1.3-.1a.215.215,0,0,0,.2-.2.367.367,0,0,0,.1-.3c0-.2-.1-.3-.4-.4a8.113,8.113,0,0,0-1.1-.3,1.421,1.421,0,0,1-.6-.2c-.2-.1-.3-.1-.5-.2-.1-.1-.3-.2-.3-.4a.749.749,0,0,1-.1-.5,1.884,1.884,0,0,1,.2-.8,1.205,1.205,0,0,1,.5-.5,1.445,1.445,0,0,1,.7-.2c.2,0,.5-.1.8-.1a2.2,2.2,0,0,1,.8.1,1.08,1.08,0,0,1,.7.3,1.205,1.205,0,0,1,.5.5,1.445,1.445,0,0,1,.2.7H12.9a.462.462,0,0,0-.3-.5,1.268,1.268,0,0,0-.6-.1h-.2c-.1,0-.2,0-.2.1-.1,0-.1.1-.2.1,0,.1-.1.1-.1.2a.367.367,0,0,0,.1.3c.1.1.2.1.3.2a4.331,4.331,0,0,0,.5.1,4.331,4.331,0,0,1,.5.1,1.421,1.421,0,0,1,.6.2c.2.1.3.1.5.2.1.1.3.2.3.4a1.083,1.083,0,0,1,.1.6,1.884,1.884,0,0,1-.2.8,1.205,1.205,0,0,1-.5.5,4.876,4.876,0,0,1-.7.3,2.2,2.2,0,0,1-.8.1,1.949,1.949,0,0,1-.8-.1c-.3-.1-.5-.1-.7-.3a1.205,1.205,0,0,1-.5-.5,1.884,1.884,0,0,1-.2-.8h1.3C10.9,68.1,10.9,68.3,11,68.4Z"/>
      <path id="Path_65" data-name="Path 65" class="cls-1" d="M17.5,64.8v.9h-1V68c0,.2,0,.4.1.4.1.1.2.1.4.1h.4v1H16c-.2,0-.3-.1-.5-.2l-.3-.3c-.1-.1-.1-.3-.1-.6V65.6h-.8v-.9h.8V63.3h1.3v1.4h1.1Z"/>
      <path id="Path_66" data-name="Path 66" class="cls-1" d="M18.2,64V62.9h1.3V64Zm1.3.8v4.8H18.2V64.8Z"/>
      <path id="Path_67" data-name="Path 67" class="cls-1" d="M21.8,64.8v.7h0a1.344,1.344,0,0,1,.7-.6,2.354,2.354,0,0,1,.8-.2,2.483,2.483,0,0,1,.9.1,1,1,0,0,1,.5.4l.3.6a1.949,1.949,0,0,1,.1.8v3H23.8V66.9a2,2,0,0,0-.2-.9c-.1-.2-.3-.3-.7-.3a.984.984,0,0,0-.8.3c-.2.2-.2.6-.2,1.1v2.5H20.6V64.8Z"/>
      <path id="Path_68" data-name="Path 68" class="cls-1" d="M28.7,64.8v.9h-1V68c0,.2,0,.4.1.4.1.1.2.1.4.1h.4v1H27.2c-.2,0-.3-.1-.5-.2l-.3-.3c-.1-.1-.1-.3-.1-.6V65.6h-.8v-.9h.8V63.3h1.3v1.4h1.1Z"/>
      <path id="Path_69" data-name="Path 69" class="cls-1" d="M29.4,64V62.9h1.3V64Zm1.3.8v4.8H29.4V64.8Z"/>
      <path id="Path_70" data-name="Path 70" class="cls-1" d="M35,69.6v-.7h0a1.344,1.344,0,0,1-.7.6,2.354,2.354,0,0,1-.8.2,2.483,2.483,0,0,1-.9-.1,1,1,0,0,1-.5-.4l-.3-.6a1.949,1.949,0,0,1-.1-.8v-3H33v2.7a2,2,0,0,0,.2.9c.1.2.3.3.7.3a.984.984,0,0,0,.8-.3c.2-.2.2-.6.2-1.1V64.8h1.3v4.8Z"/>
      <path id="Path_71" data-name="Path 71" class="cls-1" d="M43.3,68.9a3.394,3.394,0,0,1-.6.6,2.388,2.388,0,0,1-.9.2,2,2,0,0,1-.9-.2,1.344,1.344,0,0,1-.7-.6,2.01,2.01,0,0,1-.4-.8,3.083,3.083,0,0,1-.1-1,2.769,2.769,0,0,1,.1-.9,2.01,2.01,0,0,1,.4-.8,4.349,4.349,0,0,1,.7-.6,2.92,2.92,0,0,1,.9-.2,1.884,1.884,0,0,1,.8.2,1.024,1.024,0,0,1,.6.5h0V62.9h1.3v6.6H43.2l.1-.6Zm-.1-2.3c0-.2-.1-.3-.2-.5-.1-.1-.2-.3-.3-.3a1.3,1.3,0,0,0-1,0c-.1.1-.3.2-.4.3a.764.764,0,0,0-.2.5c0,.2-.1.4-.1.6a1.268,1.268,0,0,0,.1.6.764.764,0,0,0,.2.5c.1.1.2.3.4.4a1.3,1.3,0,0,0,1,0c.1-.1.3-.2.3-.3.1-.1.1-.3.2-.5,0-.2.1-.4.1-.6A1.285,1.285,0,0,0,43.2,66.6Z"/>
      <path id="Path_72" data-name="Path 72" class="cls-1" d="M47,68.4a1.222,1.222,0,0,0,.9.3,1.445,1.445,0,0,0,.7-.2c.2-.1.3-.3.4-.4h1a1.933,1.933,0,0,1-.9,1.2,3.255,3.255,0,0,1-1.4.4,2.959,2.959,0,0,1-1-.2,2.1,2.1,0,0,1-1.3-1.3,3.553,3.553,0,0,1-.2-1,2.958,2.958,0,0,1,.2-1,2.1,2.1,0,0,1,1.3-1.3,2.959,2.959,0,0,1,1-.2,3.6,3.6,0,0,1,1.1.2,2.169,2.169,0,0,1,.7.6,3.552,3.552,0,0,1,.4.9,3.75,3.75,0,0,1,.1,1.1H46.5A1.934,1.934,0,0,0,47,68.4Zm1.5-2.5a.908.908,0,0,0-.7-.3.749.749,0,0,0-.5.1c-.1.1-.3.2-.3.3-.1.1-.1.2-.2.3,0,.1-.1.2-.1.3h2.2A5.736,5.736,0,0,1,48.5,65.9Z"/>
      <path id="Path_73" data-name="Path 73" class="cls-1" d="M5.1,81.1c-.1.2-.2.5-.3.7a2.177,2.177,0,0,1-.8.5,4.438,4.438,0,0,1-1.3.2,1.7,1.7,0,0,1-.7-.1c-.2-.1-.5-.2-.7-.3a1.205,1.205,0,0,1-.5-.5,1.445,1.445,0,0,1-.2-.7H1.9a1,1,0,0,0,.4.5,1.268,1.268,0,0,0,.6.1.984.984,0,0,0,.8-.3.778.778,0,0,0,.2-.8v-.6h0c-.1.3-.3.4-.6.6a2.354,2.354,0,0,1-.8.2,2,2,0,0,1-.9-.2,1.024,1.024,0,0,1-.6-.5,2.01,2.01,0,0,1-.4-.8,4.1,4.1,0,0,1,0-1.8,2.994,2.994,0,0,1,.4-.8,2.651,2.651,0,0,1,.6-.5,2.92,2.92,0,0,1,.9-.2,1.884,1.884,0,0,1,.8.2,1.7,1.7,0,0,1,.6.6h0V76H5.2v4.5A1.759,1.759,0,0,1,5.1,81.1ZM3.3,79.5c.1-.1.3-.2.4-.3a.758.758,0,0,0,.2-.4c0-.2.1-.3.1-.5a1.268,1.268,0,0,0-.1-.6c0-.2-.1-.3-.2-.5l-.3-.3a.749.749,0,0,0-.5-.1.9.9,0,0,0-.5.1,1.381,1.381,0,0,0-.4.3.758.758,0,0,0-.2.4c0,.2-.1.3-.1.5a.9.9,0,0,0,.1.5c0,.2.1.3.2.5l.3.3a.749.749,0,0,0,.5.1A.446.446,0,0,0,3.3,79.5Z"/>
      <path id="Path_74" data-name="Path 74" class="cls-1" d="M6.2,77.4a1.884,1.884,0,0,1,.2-.8,1.205,1.205,0,0,1,.5-.5,4.876,4.876,0,0,1,.7-.3,2.2,2.2,0,0,1,.8-.1,1.7,1.7,0,0,1,.7.1,1.854,1.854,0,0,1,.7.2,1,1,0,0,1,.5.4,1.445,1.445,0,0,1,.2.7v3.1c0,.2.1.3.1.4H9.4c0-.1,0-.2-.1-.2v-.2a3.039,3.039,0,0,1-.7.5,2.769,2.769,0,0,1-.9.1,1.268,1.268,0,0,1-.6-.1c-.2-.1-.4-.1-.5-.3-.1-.1-.3-.3-.3-.4a.6.6,0,0,1-.3-.6,1.483,1.483,0,0,1,.1-.7.781.781,0,0,1,.4-.4c.2-.1.3-.2.5-.2a1.952,1.952,0,0,1,.7-.1c.2,0,.4-.1.6-.1a.749.749,0,0,0,.5-.1.758.758,0,0,0,.4-.2.367.367,0,0,0,.1-.3c0-.1,0-.3-.1-.3,0-.1-.1-.1-.2-.2-.1,0-.2-.1-.3-.1H8.4a.845.845,0,0,0-.6.2,1.628,1.628,0,0,0-.3.6H6.2Zm3,1c-.1,0-.1.1-.2.1s-.2.1-.3.1H8.1a.367.367,0,0,0-.3.1c-.1,0-.2.1-.3.1l-.2.2c0,.1-.1.2-.1.3a.367.367,0,0,0,.1.3c0,.1.1.1.2.2.1,0,.2.1.3.1h.3c.3,0,.5,0,.6-.1l.3-.3c.1-.1.1-.2.1-.4v-.7Z"/>
      <path id="Path_75" data-name="Path 75" class="cls-1" d="M12.8,75.9v.9h0c.1-.1.1-.3.3-.4a1.381,1.381,0,0,1,.4-.3.758.758,0,0,1,.4-.2c.2,0,.3-.1.5-.1h.3V77h-.5a1.268,1.268,0,0,0-.6.1,1.38,1.38,0,0,0-.4.3,1.421,1.421,0,0,0-.2.6c0,.2-.1.4-.1.6v2.2H11.6V76h1.2Z"/>
      <path id="Path_76" data-name="Path 76" class="cls-1" d="M15.2,77.4a1.884,1.884,0,0,1,.2-.8,1.205,1.205,0,0,1,.5-.5,4.876,4.876,0,0,1,.7-.3,2.2,2.2,0,0,1,.8-.1,1.7,1.7,0,0,1,.7.1,1.854,1.854,0,0,1,.7.2,1,1,0,0,1,.5.4,1.445,1.445,0,0,1,.2.7v3.1c0,.2.1.3.1.4H18.3c0-.1,0-.2-.1-.2v-.2a3.039,3.039,0,0,1-.7.5,2.769,2.769,0,0,1-.9.1,1.268,1.268,0,0,1-.6-.1c-.2-.1-.4-.1-.5-.3-.1-.1-.3-.3-.3-.4a1.268,1.268,0,0,1-.1-.6,1.483,1.483,0,0,1,.1-.7.781.781,0,0,1,.4-.4c.2-.1.3-.2.5-.2a1.268,1.268,0,0,1,.6-.1c.2,0,.4-.1.6-.1a.749.749,0,0,0,.5-.1.758.758,0,0,0,.4-.2.367.367,0,0,0,.1-.3c0-.1,0-.3-.1-.3,0-.1-.1-.1-.2-.2-.1,0-.2-.1-.3-.1h-.3a.845.845,0,0,0-.6.2,1.628,1.628,0,0,0-.3.6H15.2Zm3,1c-.1,0-.1.1-.2.1s-.2.1-.3.1h-.6a.367.367,0,0,0-.3.1c-.1,0-.2.1-.3.1l-.2.2c0,.1-.1.2-.1.3a.367.367,0,0,0,.1.3c0,.1.1.1.2.2.1,0,.2.1.3.1h.3c.3,0,.5,0,.6-.1l.3-.3c.1-.1.1-.2.1-.4v-.7Z"/>
      <path id="Path_77" data-name="Path 77" class="cls-1" d="M21.8,75.9v.7h0a1.344,1.344,0,0,1,.7-.6,2.354,2.354,0,0,1,.8-.2,2.483,2.483,0,0,1,.9.1,1,1,0,0,1,.5.4l.3.6a1.949,1.949,0,0,1,.1.8v3H23.8V78a2,2,0,0,0-.2-.9c-.1-.2-.3-.3-.7-.3a.984.984,0,0,0-.8.3c-.2.2-.2.6-.2,1.1v2.5H20.6V75.9h1.2Z"/>
      <path id="Path_78" data-name="Path 78" class="cls-1" d="M28.7,75.9v.9h-1v2.4c0,.2,0,.4.1.4.1.1.2.1.4.1h.4v1H27.2c-.2,0-.3-.1-.5-.2l-.3-.3c-.1-.1-.1-.3-.1-.6V76.8h-.8v-.9h.8V74.5h1.3v1.4Z"/>
      <path id="Path_79" data-name="Path 79" class="cls-1" d="M29.4,75.2V74.1h1.3v1.1Zm1.3.7v4.8H29.4V75.9Z"/>
      <path id="Path_80" data-name="Path 80" class="cls-1" d="M31.7,77.4a1.884,1.884,0,0,1,.2-.8,1.205,1.205,0,0,1,.5-.5,4.876,4.876,0,0,1,.7-.3,2.2,2.2,0,0,1,.8-.1,1.7,1.7,0,0,1,.7.1,1.854,1.854,0,0,1,.7.2,1,1,0,0,1,.5.4,1.445,1.445,0,0,1,.2.7v3.1c0,.2.1.3.1.4H34.8c0-.1,0-.2-.1-.2v-.2a3.039,3.039,0,0,1-.7.5,2.769,2.769,0,0,1-.9.1,1.268,1.268,0,0,1-.6-.1c-.2-.1-.4-.1-.5-.3-.1-.1-.3-.3-.3-.4a1.268,1.268,0,0,1-.1-.6,1.483,1.483,0,0,1,.1-.7.781.781,0,0,1,.4-.4c.2-.1.3-.2.5-.2a1.268,1.268,0,0,1,.6-.1c.2,0,.4-.1.6-.1a.749.749,0,0,0,.5-.1.758.758,0,0,0,.4-.2.367.367,0,0,0,.1-.3c0-.1,0-.3-.1-.3,0-.1-.1-.1-.2-.2-.1,0-.2-.1-.3-.1h-.3a.845.845,0,0,0-.6.2,1.628,1.628,0,0,0-.3.6H31.7Zm3.1,1c-.1,0-.1.1-.2.1s-.2.1-.3.1h-.6a.367.367,0,0,0-.3.1c-.1,0-.2.1-.3.1-.1.1-.1.2-.2.3,0,.1-.1.2-.1.3a.367.367,0,0,0,.1.3c0,.1.1.1.2.2.1,0,.2.1.3.1h.3c.3,0,.5,0,.6-.1l.3-.3c.1-.1.1-.2.1-.4v-.8Z"/>
      <path id="Path_81" data-name="Path 81" class="cls-1" d="M4,91.3a3.394,3.394,0,0,1-.6.6,2.769,2.769,0,0,1-.9.1,2,2,0,0,1-.9-.2,1.344,1.344,0,0,1-.7-.6,2.01,2.01,0,0,1-.4-.8,3.083,3.083,0,0,1-.1-1,2.769,2.769,0,0,1,.1-.9,2.01,2.01,0,0,1,.4-.8,4.349,4.349,0,0,1,.7-.6,2.22,2.22,0,0,1,.9-.1,2.2,2.2,0,0,1,.8.1,1.024,1.024,0,0,1,.6.5h0V85.2H5.2v6.6H4v-.5Zm-.1-2.4c0-.2-.1-.3-.2-.5-.1-.1-.2-.3-.3-.3a1.083,1.083,0,0,0-.6-.1.749.749,0,0,0-.5.1c-.1.1-.3.2-.4.3a.764.764,0,0,0-.2.5c0,.2-.1.4-.1.6a1.268,1.268,0,0,0,.1.6.764.764,0,0,0,.2.5c.1.1.2.3.4.4h.5a.749.749,0,0,0,.5-.1c.1-.1.3-.2.3-.3.1-.1.1-.3.2-.5a.735.735,0,0,0,.2-.6A1.268,1.268,0,0,0,3.9,88.9Z"/>
      <path id="Path_82" data-name="Path 82" class="cls-1" d="M7.7,90.8a1.549,1.549,0,0,0,.8.2.844.844,0,0,0,.7-.2c.2-.1.3-.3.4-.4h1.2a1.933,1.933,0,0,1-.9,1.2,2.3,2.3,0,0,1-1.4.4,2.959,2.959,0,0,1-1-.2,2.1,2.1,0,0,1-1.3-1.3,3.553,3.553,0,0,1-.2-1,2.959,2.959,0,0,1,.2-1,2.1,2.1,0,0,1,1.3-1.3,1.645,1.645,0,0,1,1-.2,3.6,3.6,0,0,1,1.1.2,2.169,2.169,0,0,1,.7.6,3.552,3.552,0,0,1,.4.9,3.75,3.75,0,0,1,.1,1.1H7.3A1.88,1.88,0,0,0,7.7,90.8Zm1.5-2.6a1.549,1.549,0,0,0-.8-.2.749.749,0,0,0-.5.1c-.1.1-.3.2-.3.3-.1.1-.1.2-.2.3,0,.1-.1.2-.1.3H9.5A6.89,6.89,0,0,0,9.2,88.2Z"/>
      <path id="Path_83" data-name="Path 83" class="cls-1" d="M17.6,93.6V91.3h0a2.036,2.036,0,0,1-.7.6,2.768,2.768,0,0,1-.9.1,1.7,1.7,0,0,1-.7-.1,2.506,2.506,0,0,1-.7-.4,2.177,2.177,0,0,1-.5-.8,4.121,4.121,0,0,1-.1-1.2,3.751,3.751,0,0,1,.1-1,2.01,2.01,0,0,1,.4-.8,4.349,4.349,0,0,1,.7-.6,2.959,2.959,0,0,1,1-.2,1.884,1.884,0,0,1,.8.2.9.9,0,0,1,.6.6h0v-.6h1.3v6.5Zm-2.2-3.5c0,.2.1.3.2.5.1.1.2.3.4.3,0,.1.2.1.4.1a.749.749,0,0,0,.5-.1c.1-.1.3-.2.4-.3a.764.764,0,0,0,.2-.5c0-.2.1-.4.1-.6a1.268,1.268,0,0,0-.1-.6.764.764,0,0,0-.2-.5c-.1-.1-.2-.3-.3-.4h-.5a.749.749,0,0,0-.5.1c-.1.1-.3.2-.4.3a.764.764,0,0,0-.2.5c0,.2-.1.4-.1.6A1.268,1.268,0,0,0,15.4,90.1Z"/>
      <path id="Path_84" data-name="Path 84" class="cls-1" d="M23.1,91.9v-.7h0a1.344,1.344,0,0,1-.7.6,1.077,1.077,0,0,1-.8.2,2.483,2.483,0,0,1-.9-.1,1,1,0,0,1-.5-.4l-.3-.6a1.949,1.949,0,0,1-.1-.8v-3h1.3v2.7a2,2,0,0,0,.2.9c.1.2.3.3.7.3a.984.984,0,0,0,.8-.3c.2-.2.2-.6.2-1.1V87.1h1.3v4.8Z"/>
      <path id="Path_85" data-name="Path 85" class="cls-1" d="M25.3,88.6a1.884,1.884,0,0,1,.2-.8,1.205,1.205,0,0,1,.5-.5,4.876,4.876,0,0,1,.7-.3,2.2,2.2,0,0,1,.8-.1,1.7,1.7,0,0,1,.7.1,1.854,1.854,0,0,1,.7.2,1,1,0,0,1,.5.4,1.445,1.445,0,0,1,.2.7v3.1c0,.2.1.3.1.4H28.4c0-.1,0-.2-.1-.2v-.2a3.039,3.039,0,0,1-.7.5,1.949,1.949,0,0,1-.8.1,1.268,1.268,0,0,1-.6-.1c-.2-.1-.4-.1-.5-.3-.1-.1-.3-.3-.3-.4a1.268,1.268,0,0,1-.1-.6,1.483,1.483,0,0,1,.1-.7.781.781,0,0,1,.4-.4c.2-.1.3-.2.5-.2a1.268,1.268,0,0,1,.6-.1c.2,0,.4-.1.6-.1A.749.749,0,0,0,28,89a.758.758,0,0,0,.4-.2.367.367,0,0,0,.1-.3c0-.1,0-.3-.1-.3,0-.1-.1-.1-.2-.2-.1,0-.2-.1-.3-.1h-.3a.845.845,0,0,0-.6.2,1.628,1.628,0,0,0-.3.6H25.3Zm3.1,1c-.1,0-.1.1-.2.1s-.2.1-.3.1h-.6a.367.367,0,0,0-.3.1c-.1,0-.2.1-.3.1l-.2.2c0,.1-.1.2-.1.3a.367.367,0,0,0,.1.3c0,.1.1.1.2.2.1,0,.2.1.3.1h.3c.3,0,.5,0,.6-.1l.3-.3c.1-.1.1-.2.1-.4v-.7Z"/>
      <path id="Path_86" data-name="Path 86" class="cls-1" d="M32.1,85.3v6.6H30.8V85.3Z"/>
      <path id="Path_87" data-name="Path 87" class="cls-1" d="M33.2,86.4V85.3h1.3v1.1Zm1.3.7v4.8H33.2V87.1Z"/>
      <path id="Path_88" data-name="Path 88" class="cls-1" d="M38.2,87.1V88h-1v2.4c0,.2,0,.4.1.4.1.1.2.1.4.1h.4v1H36.7c-.2,0-.3-.1-.5-.2l-.3-.3c-.1-.1-.1-.3-.1-.6V88H35v-.9h.8V85.7h1.3v1.4Z"/>
      <path id="Path_89" data-name="Path 89" class="cls-1" d="M38.8,88.6a1.884,1.884,0,0,1,.2-.8,1.205,1.205,0,0,1,.5-.5,4.876,4.876,0,0,1,.7-.3H41a1.7,1.7,0,0,1,.7.1,1.854,1.854,0,0,1,.7.2,1,1,0,0,1,.5.4,1.445,1.445,0,0,1,.2.7v3.1c0,.2.1.3.1.4H42c0-.1,0-.2-.1-.2v-.2a3.039,3.039,0,0,1-.7.5h-.9a1.268,1.268,0,0,1-.6-.1c-.2-.1-.4-.1-.5-.3-.1-.1-.3-.3-.3-.4a1.268,1.268,0,0,1-.1-.6,1.483,1.483,0,0,1,.1-.7.781.781,0,0,1,.4-.4c.2-.1.3-.2.5-.2a1.268,1.268,0,0,1,.6-.1c.2,0,.4-.1.6-.1a.749.749,0,0,0,.5-.1.758.758,0,0,0,.4-.2.367.367,0,0,0,.1-.3c0-.1,0-.3-.1-.3,0-.1-.1-.1-.2-.2-.1,0-.2-.1-.3-.1h-.3a.845.845,0,0,0-.6.2,1.628,1.628,0,0,0-.3.6H38.8Zm3,1c-.1,0-.1.1-.2.1s-.2.1-.3.1h-.6a.367.367,0,0,0-.3.1c-.1,0-.2.1-.3.1l-.2.2c0,.1-.1.2-.1.3a.367.367,0,0,0,.1.3c0,.1.1.1.2.2.1,0,.2.1.3.1h.3c.3,0,.5,0,.6-.1l.3-.3c.1-.1.1-.2.1-.4v-.7Z"/>
      <path id="Path_90" data-name="Path 90" class="cls-1" d="M46.8,87.1V88h-1v2.4c0,.2,0,.4.1.4.1.1.2.1.4.1h.4v1H45.3c-.2,0-.3-.1-.5-.2l-.3-.3c-.1-.1-.1-.3-.1-.6V88h-.8v-.9h.8V85.7h1.3v1.4Z"/>
      <path id="Path_91" data-name="Path 91" class="cls-1" d="M.5,99.8A1.884,1.884,0,0,1,.7,99a1.205,1.205,0,0,1,.5-.5,4.876,4.876,0,0,1,.7-.3,2.2,2.2,0,0,1,.8-.1,1.7,1.7,0,0,1,.7.1,1.854,1.854,0,0,1,.7.2,1,1,0,0,1,.5.4,1.445,1.445,0,0,1,.2.7v3.1c0,.2.1.3.1.4H3.7c0-.1,0-.2-.1-.2v-.2a3.039,3.039,0,0,1-.7.5,2.769,2.769,0,0,1-.9.1,1.268,1.268,0,0,1-.6-.1c-.2-.1-.4-.1-.5-.3-.1-.1-.3-.3-.3-.4a1.268,1.268,0,0,1-.1-.6,1.483,1.483,0,0,1,.1-.7.781.781,0,0,1,.4-.4c.2-.1.3-.2.5-.2a1.268,1.268,0,0,1,.6-.1c.2,0,.4-.1.6-.1a.749.749,0,0,0,.5-.1.758.758,0,0,0,.4-.2.367.367,0,0,0,.1-.3c0-.1,0-.3-.1-.3,0-.1-.1-.1-.2-.2-.1,0-.2-.1-.3-.1H2.8a.845.845,0,0,0-.6.2,1.628,1.628,0,0,0-.3.6H.5Zm3.1.9c-.1,0-.1.1-.2.1s-.2.1-.3.1H2.5a.367.367,0,0,0-.3.1c-.1,0-.2.1-.3.1l-.2.2c0,.1-.1.2-.1.3a.367.367,0,0,0,.1.3c0,.1.1.1.2.2.1,0,.2.1.3.1h.3c.3,0,.5,0,.6-.1l.3-.3c.1-.1.1-.2.1-.4v-.7Z"/>
      <path id="Path_92" data-name="Path 92" class="cls-1" d="M7.2,98.3V99h0l.6-.6a1.884,1.884,0,0,1,.8-.2,1.884,1.884,0,0,1,.8.2c.3.1.4.3.6.6a1.7,1.7,0,0,1,.6-.6c.2-.2.5-.2.9-.2a1.483,1.483,0,0,1,.7.1l.6.3a1,1,0,0,1,.4.5,1.949,1.949,0,0,1,.1.8v3.2H12V99.9a.6.6,0,0,0-.1-.4c-.1-.1-.1-.2-.2-.3a.6.6,0,0,0-.4-.1,1.087,1.087,0,0,0-.5.1l-.3.3c-.1.1-.1.2-.1.4V103H9V99.9a.6.6,0,0,0-.1-.4c0-.1-.1-.2-.2-.3a.749.749,0,0,0-.5-.1H8c-.1,0-.2.1-.3.2s-.2.2-.2.3c-.1.1-.1.3-.1.6V103H5.9V98.2H7.2Z"/>
      <path id="Path_93" data-name="Path 93" class="cls-1" d="M15.7,96.4v2.4h0a1.794,1.794,0,0,1,.7-.5,2.92,2.92,0,0,1,.9-.2,1.7,1.7,0,0,1,.7.1,2.651,2.651,0,0,1,.6.5,5.582,5.582,0,0,1,.5.8,3.125,3.125,0,0,1,0,2.2,2.177,2.177,0,0,1-.5.8,2.651,2.651,0,0,1-.6.5,1.7,1.7,0,0,1-.7.1,2,2,0,0,1-.9-.2.9.9,0,0,1-.6-.6h0v.6H14.5V96.3h1.2Zm2.1,3.7a.764.764,0,0,0-.2-.5c-.1-.1-.2-.3-.3-.3a.749.749,0,0,0-.5-.1.749.749,0,0,0-.5.1c-.1.1-.3.2-.4.3a.764.764,0,0,0-.2.5c0,.2-.1.4-.1.6a1.268,1.268,0,0,0,.1.6.764.764,0,0,0,.2.5c.1.1.2.3.4.3a.749.749,0,0,0,.5.1.749.749,0,0,0,.5-.1c.1-.1.3-.2.3-.3a.764.764,0,0,0,.2-.5c0-.2.1-.4.1-.6S17.8,100.3,17.8,100.1Z"/>
      <path id="Path_94" data-name="Path 94" class="cls-1" d="M20.1,97.5V96.4h1.3v1.1Zm1.3.8v4.8H20.1V98.3Z"/>
      <path id="Path_95" data-name="Path 95" class="cls-1" d="M23.8,101.9a1.222,1.222,0,0,0,.9.3,1.445,1.445,0,0,0,.7-.2c.2-.1.3-.3.4-.4H27a1.933,1.933,0,0,1-.9,1.2,3.255,3.255,0,0,1-1.4.4,2.959,2.959,0,0,1-1-.2,2.1,2.1,0,0,1-1.3-1.3,3.553,3.553,0,0,1-.2-1,2.959,2.959,0,0,1,.2-1,2.1,2.1,0,0,1,1.3-1.3,2.959,2.959,0,0,1,1-.2,3.6,3.6,0,0,1,1.1.2,2.169,2.169,0,0,1,.7.6,3.552,3.552,0,0,1,.4.9A3.75,3.75,0,0,1,27,101H23.5A1.222,1.222,0,0,0,23.8,101.9Zm1.5-2.5a.908.908,0,0,0-.7-.3.749.749,0,0,0-.5.1c-.1.1-.3.2-.3.3-.1.1-.1.2-.2.3,0,.1-.1.2-.1.3h2.2A1.612,1.612,0,0,0,25.3,99.4Z"/>
      <path id="Path_96" data-name="Path 96" class="cls-1" d="M29,98.3V99h0a1.344,1.344,0,0,1,.7-.6,2.354,2.354,0,0,1,.8-.2,2.483,2.483,0,0,1,.9.1,1,1,0,0,1,.5.4l.3.6a1.949,1.949,0,0,1,.1.8v3H31v-2.7a2,2,0,0,0-.2-.9c-.1-.2-.3-.3-.7-.3a.984.984,0,0,0-.8.3c-.2.2-.2.6-.2,1.1v2.5H27.8V98.3Z"/>
      <path id="Path_97" data-name="Path 97" class="cls-1" d="M35.9,98.3v.9h-1v2.4c0,.2,0,.4.1.4.1.1.2.1.4.1h.4v1H34.4c-.2,0-.3-.1-.5-.2l-.3-.3c-.1-.1-.1-.3-.1-.6V99.2h-.8v-.9h.8V96.9H35v1.4Z"/>
      <path id="Path_98" data-name="Path 98" class="cls-1" d="M36.5,99.8a1.884,1.884,0,0,1,.2-.8,1.205,1.205,0,0,1,.5-.5,4.876,4.876,0,0,1,.7-.3,2.2,2.2,0,0,1,.8-.1,1.7,1.7,0,0,1,.7.1,1.854,1.854,0,0,1,.7.2,1,1,0,0,1,.5.4,1.445,1.445,0,0,1,.2.7v3.1c0,.2.1.3.1.4H39.6c0-.1,0-.2-.1-.2v-.2a3.039,3.039,0,0,1-.7.5,2.769,2.769,0,0,1-.9.1,1.268,1.268,0,0,1-.6-.1c-.2-.1-.4-.1-.5-.3-.1-.1-.3-.3-.3-.4a1.268,1.268,0,0,1-.1-.6,1.483,1.483,0,0,1,.1-.7.781.781,0,0,1,.4-.4c.2-.1.3-.2.5-.2a1.268,1.268,0,0,1,.6-.1c.2,0,.4-.1.6-.1a.749.749,0,0,0,.5-.1.758.758,0,0,0,.4-.2.367.367,0,0,0,.1-.3c0-.1,0-.3-.1-.3,0-.1-.1-.1-.2-.2-.1,0-.2-.1-.3-.1h-.3a.845.845,0,0,0-.6.2,1.628,1.628,0,0,0-.3.6H36.5Zm3.1.9c-.1,0-.1.1-.2.1s-.2.1-.3.1h-.6a.367.367,0,0,0-.3.1c-.1,0-.2.1-.3.1l-.2.2c0,.1-.1.2-.1.3a.367.367,0,0,0,.1.3c0,.1.1.1.2.2.1,0,.2.1.3.1h.3c.3,0,.5,0,.6-.1l.3-.3c.1-.1.1-.2.1-.4v-.7Z"/>
      <path id="Path_99" data-name="Path 99" class="cls-1" d="M43.3,96.4V103H42V96.4Z"/>
      <path id="Path_100" data-name="Path 100" class="cls-1" d="M3.4,110.8,6,117.4H5.3l-.8-2.1h-3l-.8,2.1H0l2.7-6.6Zm.9,4.1L3,111.5l-1.3,3.4Z"/>
      <path id="Path_101" data-name="Path 101" class="cls-1" d="M7.1,110.8v6.6H6.5v-6.6Z"/>
      <path id="Path_102" data-name="Path 102" class="cls-1" d="M10.1,112.7v.5h-1v3.2a.9.9,0,0,0,.1.5.52.52,0,0,0,.4.2h.5v.5H9.5a1.292,1.292,0,0,1-.8-.2c-.2-.2-.2-.4-.2-.8v-3.3H7.7v-.5h.8v-1.4h.6v1.4h1Z"/>
      <path id="Path_103" data-name="Path 103" class="cls-1" d="M11.1,113.4a1,1,0,0,1,.4-.5l.6-.3a1.949,1.949,0,0,1,.8-.1,1.268,1.268,0,0,1,.6.1,1.421,1.421,0,0,1,.6.2,1,1,0,0,1,.4.5,1.884,1.884,0,0,1,.2.8v2.6c0,.2.1.4.3.4h.2v.5h-.4a.6.6,0,0,1-.4-.1.215.215,0,0,1-.2-.2c0-.1-.1-.2-.1-.3v-.3h0a1.768,1.768,0,0,1-.7.7c-.1.1-.3.1-.5.2-.2,0-.4.1-.6.1a1.268,1.268,0,0,1-.6-.1c-.2-.1-.4-.1-.5-.3-.1-.1-.3-.3-.3-.4s-.1-.4-.1-.6a1.884,1.884,0,0,1,.2-.8.918.918,0,0,1,.6-.4,1.884,1.884,0,0,1,.8-.2c.3,0,.6-.1.9-.1h.3a.349.349,0,0,0,.2-.1c.1,0,.1-.1.1-.2s.1-.2.1-.3a.749.749,0,0,0-.1-.5l-.3-.3c-.1-.1-.2-.1-.4-.2h-.5a1.222,1.222,0,0,0-.9.3,1.268,1.268,0,0,0-.4.9h-.6A4.053,4.053,0,0,1,11.1,113.4Zm2.9,1.5c0,.1-.1.1-.2.1s-.2.1-.3.1c-.2,0-.5.1-.8.1a1.445,1.445,0,0,0-.7.2,2.186,2.186,0,0,0-.5.3.764.764,0,0,0-.2.5.6.6,0,0,0,.1.4c.1.1.1.2.2.3s.2.1.3.2c.1,0,.3.1.4.1a1.268,1.268,0,0,0,.6-.1,2.186,2.186,0,0,0,.5-.3,1,1,0,0,0,.4-.5,1.268,1.268,0,0,0,.1-.6l.1-.8Z"/>
      <path id="Path_104" data-name="Path 104" class="cls-1" d="M18.8,115.9l.3.6a1,1,0,0,0,.5.4,1.445,1.445,0,0,0,.7.2,1.493,1.493,0,0,0,1-.3,1.934,1.934,0,0,0,.5-.9h.6a2.729,2.729,0,0,1-.7,1.3,1.955,1.955,0,0,1-1.4.4,2.959,2.959,0,0,1-1-.2,1.794,1.794,0,0,1-.7-.5,2.01,2.01,0,0,1-.4-.8,3.083,3.083,0,0,1-.1-1,2.769,2.769,0,0,1,.1-.9,2.01,2.01,0,0,1,.4-.8,4.349,4.349,0,0,1,.7-.6,2.6,2.6,0,0,1,2,0,4.349,4.349,0,0,1,.7.6,2.471,2.471,0,0,1,.4.9,3.4,3.4,0,0,1,.1,1H18.8C18.7,115.4,18.8,115.7,18.8,115.9Zm2.9-1.8a2.186,2.186,0,0,0-.3-.5,1,1,0,0,0-.5-.4,1.268,1.268,0,0,0-.6-.1c-.2,0-.5,0-.6.1a1.756,1.756,0,0,0-.5.4c-.1.2-.2.3-.3.5s-.1.4-.2.6h3.1A1.268,1.268,0,0,0,21.7,114.1Z"/>
      <path id="Path_105" data-name="Path 105" class="cls-1" d="M24.1,113.2v4.3h-.6v-4.3h-.8v-.5h.8v-1a.52.52,0,0,1,.2-.4,1.381,1.381,0,0,1,.4-.3,1.083,1.083,0,0,1,.6-.1h.5v.5h-.4c-.2,0-.3,0-.4.1a.215.215,0,0,0-.2.2c0,.1-.1.2-.1.3v.8H25v.5h-.9Z"/>
      <path id="Path_106" data-name="Path 106" class="cls-1" d="M26.2,110.8v.9h-.6v-.9Zm0,1.9v4.8h-.6v-4.8Z"/>
      <path id="Path_107" data-name="Path 107" class="cls-1" d="M30.3,113.3a1.222,1.222,0,0,0-.9-.3,1.445,1.445,0,0,0-.7.2,1.205,1.205,0,0,0-.5.5,4.875,4.875,0,0,0-.3.7,1.7,1.7,0,0,0-.1.7,1.483,1.483,0,0,0,.1.7c.1.2.2.5.3.7s.3.3.5.5a1.854,1.854,0,0,0,.7.2.749.749,0,0,0,.5-.1,1.38,1.38,0,0,0,.4-.3c.1-.1.2-.3.3-.4a1.087,1.087,0,0,0,.1-.5h.6a2.986,2.986,0,0,1-.6,1.4,1.9,1.9,0,0,1-1.3.5,2.959,2.959,0,0,1-1-.2,1.794,1.794,0,0,1-.7-.5,2.01,2.01,0,0,1-.4-.8,3.083,3.083,0,0,1-.1-1,3.4,3.4,0,0,1,.1-1,2.01,2.01,0,0,1,.4-.8,1.794,1.794,0,0,1,.7-.5,2.959,2.959,0,0,1,1-.2,1.844,1.844,0,0,1,1.3.4,1.425,1.425,0,0,1,.6,1.2h-.6A1.418,1.418,0,0,0,30.3,113.3Z"/>
      <path id="Path_108" data-name="Path 108" class="cls-1" d="M32.8,110.8v.9h-.6v-.9Zm0,1.9v4.8h-.6v-4.8Z"/>
      <path id="Path_109" data-name="Path 109" class="cls-1" d="M34.3,115.9l.3.6a1,1,0,0,0,.5.4,1.445,1.445,0,0,0,.7.2,1.493,1.493,0,0,0,1-.3,1.934,1.934,0,0,0,.5-.9h.6a2.729,2.729,0,0,1-.7,1.3,1.955,1.955,0,0,1-1.4.4,2.959,2.959,0,0,1-1-.2,1.794,1.794,0,0,1-.7-.5,2.01,2.01,0,0,1-.4-.8,3.083,3.083,0,0,1-.1-1,2.769,2.769,0,0,1,.1-.9,2.01,2.01,0,0,1,.4-.8,4.349,4.349,0,0,1,.7-.6,2.6,2.6,0,0,1,2,0,4.349,4.349,0,0,1,.7.6,2.471,2.471,0,0,1,.4.9,3.4,3.4,0,0,1,.1,1H34.3C34.2,115.4,34.3,115.7,34.3,115.9Zm2.9-1.8a2.186,2.186,0,0,0-.3-.5,1,1,0,0,0-.5-.4,1.268,1.268,0,0,0-.6-.1c-.2,0-.5,0-.6.1a1.756,1.756,0,0,0-.5.4c-.1.2-.2.3-.3.5s-.1.4-.2.6h3.1A.661.661,0,0,0,37.2,114.1Zm-1.9-3.4,1,1.3h-.5l-1.2-1.3Z"/>
      <path id="Path_110" data-name="Path 110" class="cls-1" d="M39.3,112.7v.8h0a1.344,1.344,0,0,1,.6-.7,1.613,1.613,0,0,1,.9-.3,1.949,1.949,0,0,1,.8.1,1,1,0,0,1,.5.4l.3.6a1.949,1.949,0,0,1,.1.8v3.1H42v-3a1.268,1.268,0,0,0-.1-.6c0-.2-.1-.3-.2-.5a1.381,1.381,0,0,0-.4-.3,1.85,1.85,0,0,0-1.2,0c-.2.1-.3.2-.5.3a2.186,2.186,0,0,0-.3.5,1.483,1.483,0,0,0-.1.7v2.8h-.6v-4.8h.7Z"/>
      <path id="Path_111" data-name="Path 111" class="cls-1" d="M46.7,113.3a1.222,1.222,0,0,0-.9-.3,1.445,1.445,0,0,0-.7.2,1.205,1.205,0,0,0-.5.5,4.875,4.875,0,0,0-.3.7,1.7,1.7,0,0,0-.1.7,1.483,1.483,0,0,0,.1.7c.1.2.2.5.3.7s.3.3.5.5a1.854,1.854,0,0,0,.7.2.749.749,0,0,0,.5-.1,1.38,1.38,0,0,0,.4-.3c.1-.1.2-.3.3-.4a1.087,1.087,0,0,0,.1-.5h.6a2.986,2.986,0,0,1-.6,1.4,1.9,1.9,0,0,1-1.3.5,2.959,2.959,0,0,1-1-.2,1.794,1.794,0,0,1-.7-.5,2.01,2.01,0,0,1-.4-.8,3.083,3.083,0,0,1-.1-1,3.4,3.4,0,0,1,.1-1,2.01,2.01,0,0,1,.4-.8,1.794,1.794,0,0,1,.7-.5,2.959,2.959,0,0,1,1-.2,1.844,1.844,0,0,1,1.3.4,1.425,1.425,0,0,1,.6,1.2h-.6A1.932,1.932,0,0,0,46.7,113.3Z"/>
      <path id="Path_112" data-name="Path 112" class="cls-1" d="M49.2,110.8v.9h-.6v-.9Zm0,1.9v4.8h-.6v-4.8Z"/>
      <path id="Path_113" data-name="Path 113" class="cls-1" d="M50.4,113.4a1,1,0,0,1,.4-.5l.6-.3a1.949,1.949,0,0,1,.8-.1,1.268,1.268,0,0,1,.6.1,1.421,1.421,0,0,1,.6.2,1,1,0,0,1,.4.5,1.884,1.884,0,0,1,.2.8v2.6c0,.2.1.4.3.4h.2v.5h-.4a.6.6,0,0,1-.4-.1.215.215,0,0,1-.2-.2c0-.1-.1-.2-.1-.3v-.3h0a1.768,1.768,0,0,1-.7.7c-.1.1-.3.1-.5.2-.2,0-.4.1-.6.1a1.268,1.268,0,0,1-.6-.1c-.2-.1-.4-.1-.5-.3-.1-.1-.3-.3-.3-.4s-.1-.4-.1-.6a1.884,1.884,0,0,1,.2-.8.918.918,0,0,1,.6-.4,1.884,1.884,0,0,1,.8-.2c.3,0,.6-.1.9-.1h.3a.349.349,0,0,0,.2-.1c.1,0,.1-.1.1-.2s.1-.2.1-.3a.749.749,0,0,0-.1-.5l-.3-.3c-.1-.1-.2-.1-.4-.2H52a1.222,1.222,0,0,0-.9.3,1.268,1.268,0,0,0-.4.9h-.6C50.3,113.9,50.3,113.6,50.4,113.4Zm2.9,1.5c0,.1-.1.1-.2.1s-.2.1-.3.1c-.2,0-.5.1-.8.1a1.445,1.445,0,0,0-.7.2,2.186,2.186,0,0,0-.5.3.764.764,0,0,0-.2.5.6.6,0,0,0,.1.4c.1.1.1.2.2.3s.2.1.3.2c.1,0,.3.1.4.1a1.268,1.268,0,0,0,.6-.1,2.186,2.186,0,0,0,.5-.3,1,1,0,0,0,.4-.5,1.268,1.268,0,0,0,.1-.6l.1-.8Z"/>
      <path id="Path_114" data-name="Path 114" class="cls-1" d="M1,127.1l.3.6a1,1,0,0,0,.5.4,1.445,1.445,0,0,0,.7.2,1.493,1.493,0,0,0,1-.3,1.934,1.934,0,0,0,.5-.9h.6a2.729,2.729,0,0,1-.7,1.3,1.955,1.955,0,0,1-1.4.4,2.959,2.959,0,0,1-1-.2,1.794,1.794,0,0,1-.7-.5,2.01,2.01,0,0,1-.4-.8,3.083,3.083,0,0,1-.1-1,2.769,2.769,0,0,1,.1-.9,2.01,2.01,0,0,1,.4-.8,4.349,4.349,0,0,1,.7-.6,2.959,2.959,0,0,1,1-.2,2.959,2.959,0,0,1,1,.2,4.349,4.349,0,0,1,.7.6,2.471,2.471,0,0,1,.4.9,3.4,3.4,0,0,1,.1,1H1Zm3-1.8a2.186,2.186,0,0,0-.3-.5,1,1,0,0,0-.5-.4,1.268,1.268,0,0,0-.6-.1c-.2,0-.5,0-.6.1a1.756,1.756,0,0,0-.5.4c-.1.2-.2.3-.3.5a.735.735,0,0,0-.2.6H4.1C4.1,125.7,4,125.5,4,125.3Z"/>
      <path id="Path_115" data-name="Path 115" class="cls-1" d="M6,123.8v.8H6a1.344,1.344,0,0,1,.6-.7,1.613,1.613,0,0,1,.9-.3,1.949,1.949,0,0,1,.8.1,1,1,0,0,1,.5.4l.3.6a1.949,1.949,0,0,1,.1.8v3.1H8.8v-3a1.268,1.268,0,0,0-.1-.6c0-.2-.1-.3-.2-.5a1.381,1.381,0,0,0-.4-.3,1.268,1.268,0,0,0-.6-.1,1.268,1.268,0,0,0-.6.1c-.2.1-.3.2-.5.3a2.186,2.186,0,0,0-.3.5,1.483,1.483,0,0,0-.1.7v2.8H5.4v-4.8H6Z"/>
      <path id="Path_116" data-name="Path 116" class="cls-1" d="M10.9,127.1l.3.6a1,1,0,0,0,.5.4,1.445,1.445,0,0,0,.7.2,1.493,1.493,0,0,0,1-.3,1.934,1.934,0,0,0,.5-.9h.6a2.729,2.729,0,0,1-.7,1.3,1.955,1.955,0,0,1-1.4.4,2.959,2.959,0,0,1-1-.2,1.794,1.794,0,0,1-.7-.5,2.01,2.01,0,0,1-.4-.8,3.083,3.083,0,0,1-.1-1,2.769,2.769,0,0,1,.1-.9,2.01,2.01,0,0,1,.4-.8,4.349,4.349,0,0,1,.7-.6,2.959,2.959,0,0,1,1-.2,2.959,2.959,0,0,1,1,.2,4.349,4.349,0,0,1,.7.6,2.471,2.471,0,0,1,.4.9,3.4,3.4,0,0,1,.1,1H10.9Q10.75,126.65,10.9,127.1Zm2.9-1.8a2.186,2.186,0,0,0-.3-.5,1,1,0,0,0-.5-.4,1.268,1.268,0,0,0-.6-.1c-.2,0-.5,0-.6.1a1.756,1.756,0,0,0-.5.4c-.1.2-.2.3-.3.5s-.1.4-.2.6h3.1A1.268,1.268,0,0,0,13.8,125.3Z"/>
      <path id="Path_117" data-name="Path 117" class="cls-1" d="M15.8,123.8v1.1h0a1.6,1.6,0,0,1,.7-.9,2.016,2.016,0,0,1,1.1-.3v.6a1.483,1.483,0,0,0-.7.1,2.092,2.092,0,0,0-.6.4,1.275,1.275,0,0,0-.4.6,1.483,1.483,0,0,0-.1.7v2.6h-.6v-4.8h.6Z"/>
      <path id="Path_118" data-name="Path 118" class="cls-1" d="M22.2,129.2a1.612,1.612,0,0,1-.4.7,1.794,1.794,0,0,1-.7.5,2.958,2.958,0,0,1-1,.2,1.7,1.7,0,0,1-.7-.1c-.2-.1-.4-.1-.6-.3-.2-.1-.3-.3-.5-.5a1.445,1.445,0,0,1-.2-.7h.6c0,.2.1.3.2.5l.3.3c.1.1.3.1.4.2.2,0,.3.1.5.1a1.656,1.656,0,0,0,1.2-.5,2.5,2.5,0,0,0,.4-1.3v-.7h0a1.344,1.344,0,0,1-.6.7,1.613,1.613,0,0,1-.9.3,2.959,2.959,0,0,1-1-.2,1.794,1.794,0,0,1-.7-.5,2.01,2.01,0,0,1-.4-.8,3.083,3.083,0,0,1-.1-1,2.769,2.769,0,0,1,.1-.9,2.01,2.01,0,0,1,.4-.8,1.794,1.794,0,0,1,.7-.5,2.92,2.92,0,0,1,.9-.2.9.9,0,0,1,.5.1.52.52,0,0,1,.4.2l.3.3a.52.52,0,0,1,.2.4h0v-.8h.6v4.4C22.3,128.6,22.2,128.9,22.2,129.2Zm-1.4-1.3a2.181,2.181,0,0,0,.5-.4l.3-.6a2.5,2.5,0,0,0,0-1.4c-.1-.2-.1-.4-.3-.6-.1-.2-.3-.3-.5-.5a1.325,1.325,0,0,0-1.4,0,1.205,1.205,0,0,0-.5.5l-.3.6a2.5,2.5,0,0,0,0,1.4l.3.6a1,1,0,0,0,.5.4,1.325,1.325,0,0,0,1.4,0Z"/>
      <path id="Path_119" data-name="Path 119" class="cls-1" d="M23.8,127.1l.3.6a1,1,0,0,0,.5.4,1.445,1.445,0,0,0,.7.2,1.493,1.493,0,0,0,1-.3,1.934,1.934,0,0,0,.5-.9h.6a2.729,2.729,0,0,1-.7,1.3,1.955,1.955,0,0,1-1.4.4,2.959,2.959,0,0,1-1-.2,1.794,1.794,0,0,1-.7-.5,2.01,2.01,0,0,1-.4-.8,3.083,3.083,0,0,1-.1-1,2.769,2.769,0,0,1,.1-.9,2.01,2.01,0,0,1,.4-.8,4.349,4.349,0,0,1,.7-.6,2.6,2.6,0,0,1,2,0,4.349,4.349,0,0,1,.7.6,2.471,2.471,0,0,1,.4.9,3.4,3.4,0,0,1,.1,1H23.8C23.7,126.6,23.8,126.8,23.8,127.1Zm2.9-1.8a2.186,2.186,0,0,0-.3-.5,1,1,0,0,0-.5-.4,1.268,1.268,0,0,0-.6-.1c-.2,0-.5,0-.6.1a1.756,1.756,0,0,0-.5.4c-.1.2-.2.3-.3.5s-.1.4-.2.6h3.1A1.268,1.268,0,0,0,26.7,125.3Zm-1.9-3.4,1,1.3h-.5l-1.2-1.3Z"/>
      <path id="Path_120" data-name="Path 120" class="cls-1" d="M30.1,123.8v.5h-1v3.2a.9.9,0,0,0,.1.5.52.52,0,0,0,.4.2h.5v.5h-.6a1.292,1.292,0,0,1-.8-.2c-.2-.2-.2-.4-.2-.8v-3.3h-.8v-.5h.8v-1.4h.6v1.4h1Z"/>
      <path id="Path_121" data-name="Path 121" class="cls-1" d="M31.6,122v.9H31V122Zm0,1.8v4.8H31v-4.8Z"/>
      <path id="Path_122" data-name="Path 122" class="cls-1" d="M35.6,124.5a1.222,1.222,0,0,0-.9-.3,1.445,1.445,0,0,0-.7.2,1.205,1.205,0,0,0-.5.5,4.875,4.875,0,0,0-.3.7,1.7,1.7,0,0,0-.1.7,1.483,1.483,0,0,0,.1.7c.1.2.2.5.3.7s.3.3.5.5a1.854,1.854,0,0,0,.7.2.749.749,0,0,0,.5-.1,1.38,1.38,0,0,0,.4-.3c.1-.1.2-.3.3-.4a1.087,1.087,0,0,0,.1-.5h.6a2.986,2.986,0,0,1-.6,1.4,1.9,1.9,0,0,1-1.3.5,2.959,2.959,0,0,1-1-.2,1.794,1.794,0,0,1-.7-.5,2.01,2.01,0,0,1-.4-.8,3.083,3.083,0,0,1-.1-1,3.4,3.4,0,0,1,.1-1,2.01,2.01,0,0,1,.4-.8,1.794,1.794,0,0,1,.7-.5,2.959,2.959,0,0,1,1-.2,1.844,1.844,0,0,1,1.3.4,1.425,1.425,0,0,1,.6,1.2H36C36,125,35.9,124.7,35.6,124.5Z"/>
      <path id="Path_123" data-name="Path 123" class="cls-1" d="M37.7,124.6a1,1,0,0,1,.4-.5l.6-.3a1.949,1.949,0,0,1,.8-.1,1.268,1.268,0,0,1,.6.1,1.421,1.421,0,0,1,.6.2,1,1,0,0,1,.4.5,1.884,1.884,0,0,1,.2.8v2.6c0,.2.1.4.3.4h.2v.5h-.4a.6.6,0,0,1-.4-.1.215.215,0,0,1-.2-.2c0-.1-.1-.2-.1-.3v-.3h0a1.768,1.768,0,0,1-.7.7c-.1.1-.3.1-.5.2-.2,0-.4.1-.6.1a1.268,1.268,0,0,1-.6-.1c-.2-.1-.4-.1-.5-.3-.1-.1-.3-.3-.3-.4a1.268,1.268,0,0,1-.1-.6,1.884,1.884,0,0,1,.2-.8.918.918,0,0,1,.6-.4,1.884,1.884,0,0,1,.8-.2c.3,0,.6-.1.9-.1h.3a.349.349,0,0,0,.2-.1c.1,0,.1-.1.1-.2s.1-.2.1-.3a.749.749,0,0,0-.1-.5l-.3-.3c-.1-.1-.2-.1-.4-.2h-.5a1.222,1.222,0,0,0-.9.3,1.268,1.268,0,0,0-.4.9h-.6A2.947,2.947,0,0,1,37.7,124.6Zm2.9,1.4c0,.1-.1.1-.2.1s-.2.1-.3.1c-.2,0-.5.1-.8.1a1.445,1.445,0,0,0-.7.2,2.186,2.186,0,0,0-.5.3.764.764,0,0,0-.2.5.6.6,0,0,0,.1.4c.1.1.1.2.2.3s.2.1.3.2c.1,0,.3.1.4.1a1.268,1.268,0,0,0,.6-.1,2.186,2.186,0,0,0,.5-.3,1,1,0,0,0,.4-.5,1.268,1.268,0,0,0,.1-.6l.1-.8Z"/>
      <path id="Path_124" data-name="Path 124" class="cls-1" d="M2.4,134.1a1.072,1.072,0,0,0-.6-.2,1.072,1.072,0,0,0-.6.2.55.55,0,0,0-.3.5c-.1.2-.1.4-.2.6v.6h0a1,1,0,0,1,.4-.5,1.445,1.445,0,0,1,.7-.2,1.268,1.268,0,0,1,.6.1,1.38,1.38,0,0,1,.4.3c.1.1.2.3.3.4a1.85,1.85,0,0,1,0,1.2,1.38,1.38,0,0,1-.3.4c-.1.1-.3.2-.4.3a1.268,1.268,0,0,1-.6.1,1.483,1.483,0,0,1-.7-.1,1.756,1.756,0,0,1-.5-.4,4.875,4.875,0,0,1-.3-.7,3.083,3.083,0,0,1-.1-1v-.3a.6.6,0,0,1,.1-.4c0-.2.1-.3.2-.5a1.38,1.38,0,0,1,.3-.4,1.38,1.38,0,0,1,.4-.3,1.268,1.268,0,0,1,.6-.1,1.222,1.222,0,0,1,.9.3,2.01,2.01,0,0,1,.4.8H2.7C2.6,134.4,2.6,134.2,2.4,134.1Zm-1.1,1.3c-.1.1-.2.1-.3.2s-.2.2-.2.3-.1.3-.1.4a.6.6,0,0,0,.1.4c0,.1.1.2.2.3s.2.2.3.2a.749.749,0,0,0,.5.1c.2,0,.3,0,.4-.1s.2-.1.3-.2.2-.2.2-.3.1-.3.1-.4c0-.2,0-.3-.1-.4,0-.1-.1-.3-.2-.3-.1-.1-.2-.2-.3-.2a.6.6,0,0,0-.4-.1A.9.9,0,0,0,1.3,135.4Z"/>
      <path id="Path_125" data-name="Path 125" class="cls-1" d="M4,136.9c.1.1.1.2.2.3s.2.2.3.2.3.1.4.1c.2,0,.3,0,.4-.1s.2-.1.3-.2a.52.52,0,0,0,.2-.4c0-.1.1-.3.1-.4,0-.2,0-.3-.1-.4s-.1-.2-.2-.3-.2-.2-.3-.2a.6.6,0,0,0-.4-.1.749.749,0,0,0-.5.1.781.781,0,0,0-.4.4H3.7l.4-2.2H6.2v.3H4.4l-.3,1.4h0a1.38,1.38,0,0,1,.4-.3A.749.749,0,0,1,5,135a1.268,1.268,0,0,1,.6.1,1.38,1.38,0,0,1,.4.3,2.186,2.186,0,0,1,.3.5,1.85,1.85,0,0,1,0,1.2,1.38,1.38,0,0,1-.3.4,2.186,2.186,0,0,1-.5.3,1.268,1.268,0,0,1-.6.1.749.749,0,0,1-.5-.1c-.2-.1-.3-.1-.4-.2a1.381,1.381,0,0,1-.3-.4.9.9,0,0,1-.1-.5H4C3.9,136.7,4,136.8,4,136.9Z"/>
      <path id="Path_126" data-name="Path 126" class="cls-1" d="M9.6,133.6v.3l-.5.5a2.177,2.177,0,0,0-.5.8,11.731,11.731,0,0,0-.5,1.1,5.067,5.067,0,0,0-.2,1.3H7.5c0-.4.1-.7.1-1l.3-.9a4.053,4.053,0,0,1,.5-.9,5.5,5.5,0,0,1,.7-.9H6.9v-.3H9.6Z"/>
      <path id="Path_127" data-name="Path 127" class="cls-1" d="M11.7,133.4H12l-1.8,4.4H9.9Z"/>
      <path id="Path_128" data-name="Path 128" class="cls-1" d="M12.5,136.8c0,.1.1.2.2.3s.2.2.3.2a.85.85,0,0,0,.8,0c.1,0,.2-.1.3-.2s.2-.2.2-.3c.1-.1.1-.2.1-.4s0-.3-.1-.4-.1-.2-.2-.3-.2-.1-.3-.2c-.1,0-.2-.1-.4-.1h-.3v-.3h.6c.1,0,.2-.1.3-.1l.2-.2a.367.367,0,0,0,.1-.3.6.6,0,0,0-.1-.4.215.215,0,0,0-.2-.2.367.367,0,0,0-.3-.1h-.4c-.2,0-.3,0-.4.1s-.2.1-.3.2-.1.2-.2.3c0,.1-.1.3-.1.4h-.4a.749.749,0,0,1,.1-.5c.1-.2.1-.3.3-.4a1.38,1.38,0,0,1,.4-.3.9.9,0,0,1,.5-.1.9.9,0,0,1,.5.1.52.52,0,0,1,.4.2l.3.3a.749.749,0,0,1,.1.5,1.421,1.421,0,0,1-.2.6.55.55,0,0,1-.5.3h0a.855.855,0,0,1,.6.3,1.445,1.445,0,0,1,.2.7.749.749,0,0,1-.1.5,1.38,1.38,0,0,1-.3.4.764.764,0,0,1-.5.2,1.087,1.087,0,0,1-.5.1,1.268,1.268,0,0,1-.6-.1c-.2-.1-.3-.2-.5-.3-.1-.1-.2-.3-.3-.4a1.268,1.268,0,0,1-.1-.6h.4C12.5,136.6,12.5,136.7,12.5,136.8Z"/>
      <path id="Path_129" data-name="Path 129" class="cls-1" d="M15.9,136.9c.1.1.1.2.2.3s.2.2.3.2.3.1.4.1c.2,0,.3,0,.4-.1s.2-.1.3-.2a.52.52,0,0,0,.2-.4c0-.1.1-.3.1-.4,0-.2,0-.3-.1-.4s-.1-.2-.2-.3-.2-.2-.3-.2a.6.6,0,0,0-.4-.1.749.749,0,0,0-.5.1.781.781,0,0,0-.4.4h-.3l.4-2.2h2v.3H16.2l-.3,1.4h0a1.38,1.38,0,0,1,.4-.3.9.9,0,0,1,.5-.1,1.268,1.268,0,0,1,.6.1,1.38,1.38,0,0,1,.4.3,2.186,2.186,0,0,1,.3.5,1.85,1.85,0,0,1,0,1.2,1.38,1.38,0,0,1-.3.4,2.186,2.186,0,0,1-.5.3,1.268,1.268,0,0,1-.6.1.749.749,0,0,1-.5-.1c-.2-.1-.3-.1-.4-.2a1.381,1.381,0,0,1-.3-.4.9.9,0,0,1-.1-.5h.4A.31.31,0,0,0,15.9,136.9Z"/>
      <path id="Path_130" data-name="Path 130" class="cls-1" d="M18.7,137.7a.749.749,0,0,1,.1-.5,1.768,1.768,0,0,1,.7-.7c.1-.1.3-.2.4-.3s.3-.2.4-.3.3-.2.4-.3a1.381,1.381,0,0,0,.3-.4.85.85,0,0,0,0-.8c0-.1-.1-.2-.2-.3s-.2-.1-.3-.2c-.1,0-.2-.1-.4-.1s-.3,0-.4.1-.2.1-.3.3c-.1.1-.1.2-.2.4v.4h-.4a1.268,1.268,0,0,1,.1-.6c.1-.2.1-.3.2-.5a1.38,1.38,0,0,1,.4-.3,1.268,1.268,0,0,1,.6-.1.749.749,0,0,1,.5.1.52.52,0,0,1,.4.2,1.381,1.381,0,0,1,.3.4.749.749,0,0,1,.1.5.9.9,0,0,1-.1.5c-.1.1-.1.3-.2.4l-.3.3c-.1.1-.3.2-.4.3s-.2.1-.3.2-.3.2-.4.3l-.3.3a.52.52,0,0,0-.2.4h2.3v.3H18.7Z"/>
    </g>
  </g>
</svg>
