<?xml version="1.0" encoding="utf-8"?>
<!-- Generator: Adobe Illustrator 22.0.1, SVG Export Plug-In . SVG Version: 6.00 Build 0)  -->
<svg version="1.1" id="Layer_1" xmlns="http://www.w3.org/2000/svg" xmlns:xlink="http://www.w3.org/1999/xlink" x="0px" y="0px"
	 viewBox="0 0 92.3 50" style="enable-background:new 0 0 92.3 50;" xml:space="preserve">
<style type="text/css">
	.st0{fill:#FFFFFF;}
	.st1{fill:#085DB1;}
</style>
<g>
	<path class="st0" d="M48.6,0c-13.8,0-25,11.2-25,25s11.2,25,25,25s25-11.2,25-25S62.4,0,48.6,0z M26.4,29.1c0.4,0.2,1,0.5,1.3,0.5
		c0.6,0.1,3.3-0.6,4.3-0.6c1-0.1,0.6-0.1,1.4,0.5c0.9,0.6,3.1,2.4,3.1,2.4s4.7,6.4,5.6,7.8c0.9,1.4,0.7,0.6,2.1,1.5
		c1.4,1,0,0,0.5,0.2c0.5,0.2,0.8,0.2,1.7,0.3c0.9,0.2,0,0,1.5,0.6c1.5,0.6,0.6,0.3,1.6,0.6c0,0,0.2-1.5,0-1.7
		c-0.2-0.2-0.4-7.7-0.9-8.9c-0.5-1.2,0-1.3,0-1.8c0-0.5-0.3-1.2-0.6-1.6c-0.3-0.4-0.5-0.2-1.6-0.4c-1.1-0.2-0.4,0.1-1.1-0.1
		c-0.7-0.1-0.3,0.2-1,0c-0.7-0.2-1.4-0.7-1.7-1c-0.3-0.3-1.7-0.6-2.8-0.5c-1.1,0.2-1.3-0.4-2.3-0.1c-1,0.3-1.6,0-2.1,0
		s-0.7,0.1-0.8,0c-0.1-0.1-0.6-0.3-0.9-0.4c-0.3-0.1-0.6,0-0.9,0s-0.8-0.4-1-0.6c-0.2-0.2-1-0.9-1.4-0.7c-0.3,0.2-1.4-1.4-1.3-1.9
		c0.2-0.5,0,0,0.6,0c0.6,0,0.6-0.2,1.4-0.9c0,0,0.2-0.5,0.2-1.1c0.1-0.6,0,0,1.1-0.9c0,0,0.6-0.8,1.5-1.5c0.9-0.7,0,0,0.7-0.9
		c0.7-0.9,0.6-1.1,0.8-1.4c0.1-0.2,1-0.7,1.5-1.1c0.5-0.3,1-0.6,1.6-0.8c0.6-0.3,1-0.6,1.4-0.9c0.4-0.3,0.2-0.6,0-0.7
		c-0.2-0.1-0.8-0.4-0.9-0.4s-0.9,0-1.6,0c-0.6,0-0.9,0.1-1.3,0.4c-0.4,0.3-1.2,0.2-1.7,0.7c-0.5,0.4-0.3,0.9-0.7,1.4
		c-0.4,0.6-1.2,0.2-1.3,0c-0.1-0.2-0.1-0.8,0-2.1c0.1-1.3-1.8-1.1-1.8-1.1s-0.2-0.1-0.6,0c2.7-3.8,6.5-6.8,11-8.3
		c-3.7,1.7-3.6,2.9-3.6,2.9s-0.6,1.8,1.6,1.5c2.3-0.2,2.9-0.9,3.5-0.8c0.6,0.1,1.8,0.8,2.2,1.3c0.4,0.6,0.6,2,1.7,2.8
		c1,0.8,1.9,1.5,2.7,1.4c0.9-0.1,1,0.3,1.4,0c0.4-0.2,1-0.5,1.1-1c0.2-0.5,0.6-1.7,0.8-2.2C52.9,9.4,54,8.3,54,8.3l0.6-1.7
		c0,0-2.7-1.3-3-1.9S51,3.3,51,3.3l-0.7-0.8c4.5,0.3,8.6,2,12,4.6l-0.5,0.7c0,0-1,0.1-0.7,1c0.3,0.9,0.4,2.3,0.7,2.6s0.6,0.7,0,0.7
		s-1.2,0.6-1.5,0c-0.3-0.6-0.5-1-1-1c-0.6,0-0.2-0.6-0.6,0c-0.3,0.6-0.2,0.8,0,1.7c0.2,0.9,0.6,2.4,0.8,3.1s0.7,0.9,0.9,1.8
		c0.2,0.9,0.3,2.4,0.7,2.8c0.3,0.4-0.1,0.7,0.6,1c0.6,0.2,0,0.6,1.2,0.8c1.2,0.2,2.5,0.2,2.6-0.6c0.1-0.9-0.4-1,0.3-1.4
		c0.7-0.5-1-0.2,0.7-0.5c1.7-0.2,1.4-0.1,2.2-0.2c0.7-0.2,1.8-0.5,1.8-0.5c0.5,1.9,0.8,4,0.8,6.1c0,0.1,0,0.2,0,0.3
		c-0.1-1.6-0.5-2.6-0.5-2.6s-0.6-0.1-0.9,0c-0.2,0.1-0.9,0.3-1.8,0.5c-0.9,0.1-0.6-0.2-1.4,0c-0.8,0.3-0.8-0.3-1.4,0.1
		c-0.6,0.3-1.7-0.2-2.7,0c-1,0.2,0,0-0.4,0.5c-0.4,0.5,0,0,0,0.6c0,0.6,0.2,0.5,0.6,1.5c0.3,1,0.2,0.6,0.6,1.4
		c0.3,0.7,0.6,0.4,1.4,1c0.8,0.6,1-0.5,1.9,0c0.8,0.5,1.6,0.5,1.8,0.7c0.2,0.2-0.2,0.5-1.4,0.8c-1.2,0.3-0.5-0.1-0.8-0.3
		c-0.3-0.3-0.7,0.2-1.3,0.1c-0.6-0.1-0.6-0.2-1,0c-0.5,0.2-0.6,1.1-0.8,1.6c-0.2,0.5-0.3,1.6-0.6,3c-0.2,1.4-0.6,2-1,3
		c-0.4,1-0.4,0.7-0.8,1.9c-0.4,1.2-0.1,1,0,2.1c0.1,1.1,1.8,1.8,1.8,1.8c-0.8,0.6-1.6,1.2-2.4,1.7c0,0-1.3-0.6-1.6-0.9
		c-0.3-0.2-1.3,0-2,0c-0.7,0-1.9,0.3-1.9,0.3L52,44.3l-0.9,0.1c0,0-0.8-0.3-1.6,0c-0.8,0.3-1.2-0.1-1.9,0.5c-0.7,0.6-1.1,0.2-2,0
		s-1.3-0.5-3.9-0.5c-2.5,0-2.7,0.9-2.7,1C32.5,42.4,27.7,36.3,26.4,29.1z M63.7,41.8c1.3-1.2,3.3-3.5,5.4-7.4
		C67.9,37.2,66,39.7,63.7,41.8z"/>
	<g>
		<path class="st0" d="M14.7,36.3c-0.1-0.3-0.3-0.5-0.5-0.6c0.1-0.3,0.2-0.6,0.2-0.8c0-0.4-0.1-0.7-0.3-1c-0.3-0.4-0.6-0.7-1.1-0.9
			c-0.4-0.2-0.7-0.2-0.9-0.2c-0.8,0-1.6,0.4-2.2,1.1c-0.1-0.3-0.4-0.6-0.7-0.8c0-0.1,0.1-0.1,0.1-0.1c0.4-0.7,0.6-1.3,0.6-1.8
			c0-0.3-0.1-0.6-0.2-0.9c-0.2-0.4-0.6-0.7-1-0.8c-0.2,0-0.7,0-1.2,0.5c-0.1,0.1-0.2,0.2-0.3,0.4c-0.3-0.2-0.8-0.4-1.4-0.4
			c-0.4,0-1,0.1-1.7,0.2c-0.8,0.1-1.6,0.2-2.2,0.2c-0.5,0-0.8,0.3-1,0.4c-0.2,0.3-0.3,0.6-0.2,1c0.2,0.6,0.7,1.1,1.3,1.3
			c-0.9,1.5-1.7,3.3-2,4.2C0,37.5,0,37.8,0,38c0,0.6,0.2,1,0.5,1.4c0.3,0.3,0.7,0.4,0.9,0.4c0.1,0,0.2,0,0.2,0
			c0.2,0,0.6-0.2,0.9-0.7c0.2-0.4,0.4-0.8,0.6-1.3c-0.1,0.6,0,1.1,0.4,1.5c0.3,0.4,0.7,0.5,1.1,0.5c0.4-0.1,0.8-0.3,1-0.8
			c0-0.1,0.1-0.1,0.1-0.2c0.3,0.7,1,1,1.9,1c0.6,0,1.1-0.2,1.6-0.5c0.5,0.3,1.1,0.5,1.7,0.5c0,0,0,0,0,0c1.2,0,2.6-0.7,3.3-1.8
			C14.8,37.5,14.8,36.8,14.7,36.3C14.7,36.4,14.7,36.4,14.7,36.3z"/>
		<path class="st0" d="M30.8,34.3c-0.4,0-0.8,0.1-1.1,0.3c0,0-0.1,0.1-0.1,0.1c0.1-0.5,0.2-1,0.2-1.4c0-1.3-0.6-2.3-1.6-2.8
			c-0.7-0.6-1.7-0.7-2.6-0.4c-0.7,0.2-1.5,0.7-2.2,1.5c-0.2-0.4-0.5-0.8-0.9-1.2c-0.7-0.6-1.6-0.6-2.8-0.2c0,0,0,0-0.1,0
			c-1.7,0.8-4.3,3.3-4.2,6.4c0,1.3,0.7,2.5,1.6,3c0.5,0.3,1,0.4,1.6,0.4c0.8,0,1.5-0.2,2.2-0.7c0.1-0.1,0.4-0.3,0.7-0.7
			c0.4,0.6,0.9,1.1,1.6,1.3c0.4,0.1,0.8,0.2,1.2,0.2c1.2,0,2.4-0.7,3.4-1.9c0.1,0.2,0.3,0.3,0.5,0.3c-0.5,0.4-1.1,0.8-1.7,1.2
			c-0.8,0.5-0.7,1.3-0.6,1.6c0.1,0.2,0.2,0.5,0.4,0.7c0,0,0,0,0.1,0.1c0.2,0.2,0.5,0.4,1,0.4c0.2,0,0.3,0,0.5-0.1
			c0.5-0.1,1.6-0.3,2-0.3c0.6,0,0.8-0.3,1-0.5c0.1-0.2,0.3-0.5,0.1-1c-0.1-0.1-0.2-0.4-0.4-0.6c0.9-0.8,1.6-1.6,1.8-2.1
			c0.2-0.5,0.3-0.9,0.3-1.3c0-0.6-0.2-1.1-0.6-1.5C31.9,34.5,31.4,34.3,30.8,34.3z M19.2,34.5c0.3-0.4,0.6-0.8,0.9-1.1
			c0,0.1,0,0.1,0,0.2c0,0.5,0.2,1,0.6,1.4c-0.3,0.1-0.6,0.3-0.7,0.6c-0.6,1.1-1.1,1.5-1.3,1.6c0-0.1-0.1-0.3-0.1-0.6
			C18.5,36.1,18.7,35.3,19.2,34.5z M24.9,34.5c0.7-1,1.4-1.6,1.8-1.8c0,0,0,0,0,0c0,0.3-0.1,1.2-0.7,2.5c-0.7,1.3-1.4,1.8-1.8,2
			c0-0.1,0-0.2,0-0.3C24.2,36.1,24.5,35.2,24.9,34.5z"/>
		<path class="st0" d="M52.6,36.3c-0.1-0.3-0.3-0.5-0.5-0.6c0.1-0.3,0.2-0.6,0.2-0.8c0-0.4-0.1-0.7-0.3-1c-0.3-0.4-0.6-0.7-1.1-0.9
			c-0.4-0.2-0.7-0.2-0.9-0.2c-0.7,0-1.5,0.4-2.2,1c-0.2-0.3-0.5-0.5-0.9-0.7c-0.4-0.2-0.7-0.2-0.9-0.2c-0.8,0-1.5,0.4-2.2,1
			c-0.1-0.1-0.2-0.2-0.3-0.3c-0.2-0.2-0.6-0.5-1.1-0.4c-0.2-0.4-0.5-0.7-1-0.8c0.2-0.3,0.2-0.7,0.1-1c-0.2-0.5-0.7-1.3-2.2-1.3
			c-0.4,0-1,0.1-1.7,0.2c-0.8,0.1-1.6,0.2-2.2,0.2c-0.5,0-0.8,0.3-1,0.4c-0.2,0.3-0.3,0.6-0.2,1c0.1,0.2,0.2,0.4,0.3,0.6
			c-0.4,0-0.8,0.2-1,0.4c-0.2,0.2-0.3,0.5-0.2,1c0.1,0.4,0.3,1,1.2,1.3c-0.5,0.9-0.8,1.7-0.9,2.2c-0.1,0.2-0.1,0.5-0.1,0.8
			c0,0.6,0.2,1,0.5,1.4c0.3,0.3,0.7,0.4,0.9,0.4c0.1,0,0.1,0,0.2,0c0.2,0,0.6-0.2,0.9-0.7c0.7-1.5,1.4-2.9,2.1-4.1l0.1-0.1
			c0.3,0,0.6-0.1,0.8-0.1c0,0.1,0,0.2,0,0.3c-0.6,0.7-1,1.5-1.2,1.9c-0.3,0.5-0.4,0.9-0.4,1.4c0,0.5,0.2,1.1,0.6,1.4
			c0.3,0.3,0.7,0.4,0.9,0.4c0.1,0,0.2,0,0.3,0c0.4-0.1,0.7-0.5,0.9-1c0,0,0-0.1,0-0.1c0.4,0.5,1,0.8,1.7,0.8c0.5,0,1.1-0.2,1.5-0.5
			c0.5,0.3,1,0.5,1.7,0.5c0.7,0,1.5-0.3,2.1-0.7c0.5,0.4,1.1,0.7,1.9,0.7c0,0,0,0,0,0c1.2,0,2.6-0.7,3.3-1.8
			C52.8,37.5,52.8,36.8,52.6,36.3C52.7,36.4,52.6,36.4,52.6,36.3z"/>
		<path class="st0" d="M92.2,36.3c-0.1-0.4-0.4-0.6-0.7-0.7c0.2-0.4,0.3-0.8,0.3-1.2c0-0.3-0.1-0.9-0.5-1.3
			c-0.3-0.3-0.6-0.4-0.9-0.4c-0.3,0-0.6,0.1-1,0.6c0,0,0,0,0,0.1c0,0.1-0.1,0.1-0.1,0.2c-0.1-0.1-0.1-0.2-0.2-0.3
			c-0.2-0.3-0.6-0.6-1-0.6c-0.2,0-0.7,0.1-1.1,0.6c-0.1,0.1-0.2,0.2-0.3,0.4c-0.3-0.5-0.8-0.9-1.4-0.9c-0.3,0-0.7,0.1-1.1,0.3
			c-0.2-0.2-0.5-0.4-0.8-0.4c-0.4,0-0.8,0.2-1.1,0.6c0,0.1-0.1,0.1-0.1,0.2c-0.1-0.1-0.1-0.2-0.2-0.3c-0.3-0.3-0.7-0.5-1.1-0.5
			c-0.2,0-0.4,0.1-0.5,0.2c-0.2-0.1-0.5-0.1-0.7-0.1c-0.9,0-1.9,0.6-2.8,1.6c-0.3-0.9-1-1.4-1.9-1.4c-0.2,0-0.4,0-0.6,0.1
			c-0.2-0.2-0.5-0.3-0.7-0.3c-0.3,0-0.7,0.1-1.1,0.6c-0.1,0.2-0.3,0.5-0.5,0.8c-0.2-0.7-0.7-1.1-1.4-1.1c-0.4,0-0.8,0.2-1.2,0.4
			c-0.3-0.3-0.7-0.5-1.1-0.5c-0.4,0-0.7,0.1-1.1,0.3c-0.2-0.3-0.5-0.4-0.9-0.4c0,0,0,0,0,0c-0.4,0-0.8,0.2-1.1,0.6
			c-0.2,0.3-0.4,0.6-0.6,0.8c-0.1-0.2-0.3-0.4-0.4-0.5c-0.4-0.6-0.9-0.8-1.7-0.8c-0.4,0-0.7,0.1-1.1,0.3c0.1-0.2,0.1-0.5,0.1-0.7
			c0-0.7-0.4-1.5-1.1-2.1c-0.4-0.3-0.9-0.5-1.4-0.5c-0.5,0-1,0.2-1.3,0.3c0,0,0,0-0.1,0c-1.7,0.8-4.3,3.3-4.2,6.4
			c0,1.3,0.7,2.5,1.6,3c0.5,0.3,1,0.4,1.6,0.4c0.8,0,1.5-0.2,2.2-0.7c0.1-0.1,0.3-0.2,0.5-0.5c0,0.1,0.1,0.1,0.1,0.2
			c0.5,0.7,1.2,1,2,1c0.7,0,1.3-0.3,1.8-0.7c0.1,0.2,0.2,0.3,0.4,0.4c0.4,0.3,0.8,0.3,1.1,0.3c0.2,0,0.5-0.2,0.7-0.5
			c0.1,0.1,0.1,0.2,0.2,0.2c0.3,0.3,0.7,0.4,1.1,0.4c0.4-0.1,0.8-0.4,0.9-0.7c0-0.1,0.1-0.2,0.1-0.3c0.3,0.4,0.7,0.7,1.2,0.9
			c-0.1,0.4-0.2,0.7-0.2,1c0,0.5,0.1,0.9,0.5,1.3c0.3,0.3,0.7,0.5,1,0.4c0.4-0.1,0.8-0.3,1-0.8c0.3-0.7,0.6-1.4,1-2.1
			c0.4,0.2,1,0.4,1.7,0.4c0.8,0,1.5-0.2,2.1-0.5c0.3,0.2,0.8,0.4,1.2,0.4c0.4,0,0.9-0.2,1.2-0.4c0.6,0.4,1.4,0.5,2.2,0.2
			c0.3,0.1,0.5,0.2,0.8,0.1c0.4-0.1,0.7-0.3,0.9-0.7c0-0.1,0.1-0.2,0.1-0.3c0.3,0.7,1,1.1,2,1.1c0,0,0,0,0,0
			c-0.3,0.3-0.5,0.7-0.6,1.1c-0.1,0.3-0.2,0.6-0.2,0.9c0,0.7,0.3,1.2,0.6,1.6c0.4,0.5,0.8,0.7,1.3,0.7c0.2,0,0.4,0,0.6-0.1
			c1.3-0.5,2.2-2.2,3-4.3c0.9-0.4,1.8-0.9,2.4-1.9C92.3,37.5,92.4,36.8,92.2,36.3z M57.2,34.5c0.3-0.4,0.6-0.8,0.9-1.1
			c0,0.1,0,0.1,0,0.2c0,0.5,0.2,1,0.6,1.4c-0.3,0.1-0.6,0.3-0.7,0.6c-0.6,1.1-1.1,1.5-1.3,1.6c0-0.1-0.1-0.3-0.1-0.6
			C56.5,36.1,56.7,35.3,57.2,34.5z"/>
	</g>
	<g>
		<path class="st1" d="M6.8,31.9c0.3,0,0.3-0.1,0.3-0.3c-0.2-0.5-0.7-0.7-1.3-0.7c-0.7,0-2.7,0.3-3.8,0.3c-0.2,0-0.3,0.1-0.2,0.2
			c0.1,0.5,0.7,0.8,1.5,0.8c0.2,0,0.4,0,0.5-0.1c-1.1,1.7-2.4,4.3-2.7,5.3C1,37.7,1,37.9,1,38c0,0.3,0.1,0.5,0.3,0.7
			c0.2,0.2,0.3,0.2,0.4-0.1C2.4,37,3.3,35.3,4,34.2c0.5-0.9,0.9-1.7,0.9-2.1C5.5,31.9,6.3,31.8,6.8,31.9z"/>
		<path class="st1" d="M13.4,36.7c-0.5,0.8-1.4,1.7-2.3,1.7c-0.4,0-0.6-0.4-0.6-0.9c0-0.2,0-0.5,0.1-0.7c0.3,0.2,0.6,0.3,0.9,0.3
			c1.1,0,2-1.3,2-2.1c0-0.2-0.1-0.4-0.1-0.5c-0.2-0.3-0.4-0.5-0.8-0.7c-0.1-0.1-0.3-0.1-0.4-0.1c-0.7,0-1.8,0.7-2.4,2
			c-0.2,0.4-0.3,0.8-0.4,1.1c-0.4,0.8-1,1.6-1.4,1.6c-0.2,0-0.2-0.2-0.2-0.4c0-0.2,0.1-0.5,0.2-0.7c0.1-0.3,0.5-0.8,1.1-2.1
			C9,35,9,34.8,9,34.6c0-0.5-0.4-0.9-0.7-0.9c-0.2,0-0.7,0.2-1.1,0.4c0.1-0.2,0.9-1.3,1.2-1.8c0.3-0.5,0.5-1,0.5-1.3
			c0-0.2,0-0.3-0.1-0.5c-0.1-0.3-0.3-0.3-0.5-0.1c-1,1.3-3.5,5.5-4,6.8c-0.3,0.8-0.1,1.1,0.1,1.4c0.2,0.2,0.3,0.2,0.4-0.1
			C5,37.9,5.5,37,5.9,36.3c0.7-1.1,1.9-1.9,2-1.9c0.1,0-0.1,0.3-0.3,0.7c-0.5,0.7-1.1,1.8-1.1,2.6c0,0.7,0.4,1.1,1.2,1.1
			c0.7,0,1.3-0.4,1.7-1c0.3,0.6,0.8,1,1.6,1c1,0,2-0.6,2.5-1.4c0.2-0.3,0.2-0.7,0.2-0.8C13.7,36.4,13.5,36.5,13.4,36.7z M12.4,34.4
			c0.1,0.1-0.1,0.7-0.5,1.2c-0.3,0.3-0.7,0.7-1,0.7c-0.1,0-0.2,0-0.3-0.1C11.3,35,12.3,34.2,12.4,34.4z"/>
		<path class="st1" d="M22.6,32.3c0-0.5-0.3-1-0.8-1.4c-0.2-0.2-0.5-0.3-0.8-0.3c-0.3,0-0.7,0.1-1,0.2c-1.4,0.6-3.7,2.9-3.6,5.5
			c0,1,0.5,1.8,1.1,2.1c0.3,0.2,0.7,0.3,1.1,0.3c0.5,0,1.1-0.2,1.6-0.5c0.5-0.3,1.1-1.1,1.1-1.8c0-0.1,0-0.3-0.1-0.4
			c-0.1-0.3-0.4-0.2-0.5,0c-0.7,1.4-1.6,2.2-2.3,2.2c-0.5,0-0.9-0.5-0.9-1.6c0-0.8,0.2-1.8,0.8-2.7c1-1.7,2.8-2.8,3.1-2.5
			c0.2,0.2,0,0.6-0.2,1c-0.1,0.2-0.2,0.4-0.2,0.6c-0.1,0.2-0.1,0.3-0.1,0.5c0,0.4,0.2,0.6,0.4,0.8c0.3,0.2,0.4,0,0.5-0.2
			c0.1-0.3,0.3-0.7,0.5-1.1C22.6,32.8,22.6,32.6,22.6,32.3z"/>
		<path class="st1" d="M28.8,33.2c0-0.9-0.3-1.7-1.1-2c-0.2-0.2-0.6-0.4-1-0.4c-0.3,0-0.5,0-0.8,0.1c-1.4,0.5-3.8,2.8-3.8,5.5
			c0,1,0.4,2,1.5,2.4c0.3,0.1,0.5,0.2,0.8,0.2c1.4,0,2.7-1.3,3.6-2.9C28.5,35.2,28.8,34.1,28.8,33.2z M26.8,35.6
			c-0.9,1.6-2.1,2.6-2.8,2.6c-0.5,0-0.8-0.5-0.8-1.4c0-0.8,0.3-1.9,0.9-2.9c1.1-1.8,2.6-2.6,3.2-2.4c0.3,0.1,0.4,0.5,0.4,1.1
			C27.7,33.5,27.4,34.5,26.8,35.6z"/>
		<path class="st1" d="M30.8,35.2c-0.2,0-0.5,0.1-0.7,0.2c-0.8,0.4-1.4,1.4-1.5,1.9c-0.1,0.2,0,0.2,0.2,0.2c0.5,0,0.7-0.2,1-0.7
			c0.3-0.4,0.8-1.1,1.2-1.1c0.1,0,0.3,0.1,0.3,0.4c0,0.9-2,2.9-4.2,4.3c-0.2,0.1-0.3,0.3-0.2,0.4c0,0.1,0.1,0.3,0.3,0.4
			c0.1,0.1,0.3,0.2,0.6,0.1c0.6-0.2,1.8-0.4,2.3-0.4c0.2,0,0.2-0.1,0.2-0.2c-0.1-0.3-0.4-0.5-0.9-0.5c-0.2,0-0.5,0-0.8,0.1
			c1.7-1,3-2.4,3.3-3.1c0.2-0.4,0.2-0.6,0.2-0.9c0-0.3-0.1-0.6-0.4-0.8C31.4,35.4,31.1,35.2,30.8,35.2z"/>
		<path class="st1" d="M39.8,33.8c0.3,0,0.3-0.1,0.3-0.3C40,33.2,39.7,33,39,33c-0.3,0-0.6,0-0.9,0.1c0.2-0.4,0.3-0.7,0.3-1
			c0.7-0.1,1.4-0.2,2-0.2c0.3,0,0.3-0.1,0.3-0.3c-0.2-0.5-0.7-0.7-1.3-0.7c-0.7,0-2.7,0.3-3.8,0.3c-0.2,0-0.3,0.1-0.2,0.2
			c0.1,0.5,0.7,0.8,1.5,0.8c0.2,0,0.4,0,0.5-0.1c-0.2,0.3-0.4,0.6-0.6,1c-0.7,0.1-1.4,0.1-2,0.1c-0.3,0-0.3,0.1-0.3,0.3
			c0.1,0.4,0.4,0.6,1,0.6c0.2,0,0.5,0,0.7,0c-0.7,1.3-1.3,2.7-1.5,3.3c-0.1,0.2-0.1,0.4-0.1,0.5c0,0.3,0.1,0.5,0.3,0.7
			c0.2,0.2,0.3,0.2,0.4-0.1c0.8-1.7,1.7-3.4,2.4-4.7c0.6-0.1,1.2-0.2,1.7-0.2C39.5,33.8,39.6,33.8,39.8,33.8z"/>
		<path class="st1" d="M51.3,36.7c-0.5,0.8-1.4,1.7-2.3,1.7c-0.4,0-0.6-0.4-0.6-0.9c0-0.2,0-0.5,0.1-0.7c0.3,0.2,0.6,0.3,0.9,0.3
			c1.1,0,2-1.3,2-2.1c0-0.2-0.1-0.4-0.1-0.5c-0.2-0.3-0.4-0.5-0.8-0.7c-0.1-0.1-0.3-0.1-0.4-0.1c-0.7,0-1.7,0.7-2.4,2
			c-0.2,0.4-0.3,0.7-0.4,1.1c-0.5,0.8-1.3,1.7-2.3,1.7c-0.4,0-0.6-0.4-0.6-0.9c0-0.2,0-0.5,0.1-0.7c0.3,0.2,0.6,0.3,0.9,0.3
			c1.1,0,2-1.3,2-2.1c0-0.2-0.1-0.4-0.1-0.5c-0.2-0.3-0.4-0.5-0.8-0.7c-0.1-0.1-0.3-0.1-0.4-0.1c-0.7,0-1.7,0.7-2.4,2
			c-0.2,0.4-0.3,0.8-0.4,1.2c-0.4,0.9-0.9,1.6-1.3,1.6c-0.2,0-0.3-0.2-0.3-0.5c0-0.7,0.7-1.7,1.4-2.5c0.1-0.2,0.2-0.3,0.2-0.5
			c0-0.3-0.2-0.6-0.4-0.8c-0.2-0.2-0.3-0.1-0.5,0c-0.4,0.3-0.7,0.5-1,0.5c0.1-0.4,0.2-0.8,0.2-1c0-0.3-0.1-0.4-0.4-0.4
			c-0.4,0-1.2,0.9-1.2,1.5c0,0.2,0.1,0.3,0.2,0.5c-0.7,0.9-1.3,1.9-1.5,2.3c-0.2,0.3-0.3,0.6-0.3,0.9s0.1,0.5,0.3,0.7
			c0.2,0.2,0.4,0.1,0.4-0.1c0.2-0.9,0.9-2,1.8-3.7c0.3,0,0.6-0.1,0.9-0.2c-0.6,0.8-1.3,1.7-1.3,2.5c0,0.7,0.4,1.2,1.2,1.2
			c0.6,0,1.2-0.4,1.6-0.9c0.3,0.5,0.8,0.9,1.6,0.9c0.9,0,1.8-0.5,2.3-1.1c0.2,0.7,0.8,1.1,1.7,1.1c1,0,2-0.6,2.5-1.4
			c0.2-0.3,0.2-0.7,0.2-0.8C51.6,36.4,51.5,36.5,51.3,36.7z M50.4,34.4c0.1,0.1-0.1,0.7-0.5,1.2c-0.3,0.3-0.7,0.7-1,0.7
			c-0.1,0-0.2,0-0.3-0.1C49.3,35,50.2,34.2,50.4,34.4z M46.4,34.4c0.1,0.1-0.1,0.7-0.5,1.2c-0.3,0.3-0.7,0.7-1,0.7
			c-0.1,0-0.2,0-0.3-0.1C45.3,35,46.2,34.2,46.4,34.4z"/>
		<path class="st1" d="M60.4,33.1c0.1-0.3,0.2-0.5,0.2-0.7c0-0.5-0.3-1-0.8-1.4c-0.2-0.2-0.5-0.3-0.8-0.3c-0.3,0-0.7,0.1-1,0.2
			c-1.4,0.6-3.7,2.9-3.6,5.5c0,1,0.5,1.8,1.1,2.1c0.3,0.2,0.7,0.3,1.1,0.3c0.5,0,1.1-0.2,1.6-0.5c0.5-0.3,1.1-1.1,1.1-1.8
			c0-0.1,0-0.3-0.1-0.4c-0.1-0.3-0.4-0.2-0.5,0c-0.7,1.4-1.6,2.2-2.3,2.2c-0.5,0-0.9-0.5-0.9-1.6c0-0.8,0.2-1.8,0.8-2.7
			c1-1.7,2.8-2.8,3.1-2.5c0.2,0.2,0,0.6-0.2,1c-0.1,0.2-0.2,0.4-0.2,0.6C59,33.3,59,33.4,59,33.6c0,0.4,0.2,0.6,0.4,0.8
			c0.3,0.2,0.4,0,0.5-0.2C60,33.9,60.2,33.5,60.4,33.1z"/>
		<path class="st1" d="M91.3,36.6c-0.1-0.2-0.2-0.1-0.4,0.1c-0.4,0.6-1.1,1.2-1.8,1.7c0.5-1.2,1.2-2.4,1.5-3.1
			c0.2-0.3,0.2-0.6,0.2-0.8c0-0.3-0.1-0.5-0.2-0.6c-0.1-0.1-0.3-0.1-0.5,0.1c-0.3,0.5-0.6,1.2-1.5,2.6c-0.6,1-1.2,1.8-1.5,1.8
			s-0.2-0.5,0-1c0.2-0.6,0.5-1.1,0.9-1.8c0.3-0.5,0.4-0.8,0.4-1.1c0-0.2-0.1-0.4-0.2-0.6c-0.1-0.2-0.3-0.2-0.5,0
			c-0.8,1.1-1.4,2.3-1.7,3.1c0,0.1-0.1,0.3-0.1,0.4c-0.4,0.6-0.8,1-1.2,1c-0.2,0-0.3-0.2-0.3-0.4c0-0.5,0.4-1.3,0.8-1.9
			c0.4-0.7,0.6-1.1,0.6-1.4c0-0.5-0.3-0.9-0.7-0.9c-0.5,0-1.1,0.4-1.6,0.9c0-0.1,0-0.2,0-0.3c0-0.2-0.1-0.4-0.2-0.6
			c-0.1-0.2-0.3-0.2-0.5,0c-0.8,1.2-1.8,2.9-2,3.6c0,0,0,0,0,0.1c-0.4,0.5-0.7,0.9-1.1,0.9c-0.1,0-0.2-0.1-0.2-0.3
			c0-0.8,1.1-2.2,1.4-2.9c0.3-0.7,0.2-1.2,0-1.5c-0.2-0.2-0.4-0.2-0.5,0.1l-0.2,0.4c-0.1-0.3-0.4-0.6-0.8-0.6c-0.6,0-1.7,0.6-2.7,2
			c-0.3,0.4-0.4,0.7-0.5,1.1c-0.4,0.7-1.1,1.5-2,1.7c0.4-0.3,0.8-0.9,1.1-1.6c0.3-0.6,0.5-1.2,0.5-1.8c0-0.6-0.4-1.3-1.1-1.3
			c-0.3,0-0.7,0.2-1,0.4c0-0.2,0-0.3-0.1-0.5c-0.1-0.1-0.3-0.2-0.5,0.1c-0.4,0.5-1.1,1.8-1.8,3.1c-0.4,0.8-1,1.5-1.5,1.5
			c-0.2,0-0.3-0.2-0.3-0.5c0-0.2,0.1-0.4,0.2-0.7c0.2-0.4,0.3-0.7,0.5-0.9c0.2-0.4,0.5-0.8,0.6-1.1c0.1-0.2,0.1-0.5,0.1-0.7
			c0-0.4-0.2-0.8-0.6-0.8c-0.4,0-1.1,0.4-1.6,0.9c0-0.5-0.3-1-0.7-1c-0.4,0-1.1,0.5-1.6,1c0-0.1,0-0.2,0-0.4c0-0.2-0.1-0.4-0.2-0.6
			c-0.1-0.2-0.4-0.2-0.5,0c-0.6,0.9-1.3,1.8-1.9,1.9c0-0.8-0.2-1-0.6-1.5c-0.3-0.4-0.5-0.5-0.9-0.5c-0.8,0-1.6,0.8-2.1,1.6
			c-0.3,0.6-0.5,1.2-0.5,1.8c0,0.4,0.1,0.8,0.3,1.1c0.4,0.5,0.8,0.6,1.2,0.6c1.3,0,2.2-1.4,2.5-2.7c0.3,0,0.5-0.1,0.7-0.1
			c-0.3,0.6-0.5,1.1-0.6,1.4C64,37.7,64,37.9,64,38.1c0,0.3,0.1,0.5,0.3,0.7c0.2,0.2,0.4,0.1,0.4-0.1c0.5-1.2,1.1-2.3,1.8-3
			c0.8-0.8,1.3-1.2,1.3-1.1c0.1,0-0.2,0.5-0.6,1c-0.3,0.5-0.8,1.2-0.9,1.7c-0.2,0.4-0.2,0.7-0.2,0.9c0,0.3,0.1,0.5,0.3,0.7
			c0.2,0.2,0.4,0.1,0.5-0.1c0.5-1.1,1.1-2.3,2.1-3.3c0.7-0.7,1.1-0.9,1.1-0.9c0,0-0.4,0.6-0.5,0.8c-0.3,0.5-0.7,1.1-0.9,1.6
			c-0.1,0.3-0.2,0.6-0.2,0.8c0,0.7,0.5,1.1,1.3,1.1c0.2,0,0.5-0.1,0.7-0.2c-0.2,0.5-0.4,0.9-0.5,1.2c-0.1,0.4-0.2,0.6-0.2,0.8
			c0,0.3,0.1,0.4,0.3,0.7c0.1,0.2,0.3,0.1,0.4-0.1c0.5-1.2,1.1-2.3,1.6-3.3c0.3,0.7,0.9,1,1.9,1c0.8,0,1.7-0.2,2.3-0.9
			c0.2,0.4,0.5,0.7,1.1,0.7c0.5,0,1.1-0.4,1.4-0.7c0.1,0.5,0.5,0.8,1.1,0.8c0.4,0,0.8-0.2,1.1-0.4c0,0.1,0.1,0.2,0.2,0.3
			c0.2,0.2,0.4,0.1,0.5-0.1c0.5-1.1,1.1-2.4,1.8-3.1c0.7-0.8,1.3-1.1,1.4-1.1c0.1,0-0.1,0.3-0.4,0.7c-0.5,0.8-1.1,1.9-1.1,2.6
			c0,0.7,0.4,1.1,1.2,1.1c0.4,0,0.9-0.2,1.3-0.6c0.1,0.3,0.4,0.5,0.8,0.5c0.4,0,0.7-0.1,1-0.4l-0.2,0.4c-1.2,0.5-2.2,1.3-2.6,2.3
			c-0.1,0.2-0.1,0.4-0.1,0.6c0,0.4,0.2,0.8,0.4,1c0.3,0.4,0.6,0.4,0.9,0.3c1.1-0.4,2-2.4,2.6-4.1c1-0.4,1.9-0.9,2.4-1.7
			C91.4,37.1,91.4,36.8,91.3,36.6z M62.5,36.9c-0.5,0.8-1,1.3-1.3,1.3c-0.2,0-0.3-0.2-0.3-0.6c0-0.5,0.2-1.2,0.5-1.7
			c0.2-0.4,0.5-0.7,0.7-1c0.1,0.4,0.4,0.7,0.8,0.9C62.8,36.2,62.7,36.6,62.5,36.9z M63.1,35.5c-0.1-0.2-0.2-0.5-0.2-0.7
			c0-0.2,0.1-0.3,0.2-0.3c0.1,0,0.2,0.1,0.2,0.3C63.3,34.9,63.2,35.2,63.1,35.5z M73,38.1c-0.3,0-0.4-0.9,0-1.7l0.4-0.7
			c0.5-0.9,1.2-1.5,1.5-1.4c0.1,0,0.1,0.2,0.1,0.4c0,0.4-0.2,1.1-0.5,1.6C74,37.4,73.4,38.1,73,38.1z M77.6,38.3
			c-0.1,0-0.2-0.2-0.2-0.4c0-0.4,0.2-1.1,0.6-1.7c0.6-1,1.5-1.8,1.8-1.8c0.1,0,0.2,0.1,0.2,0.2c0,0.3-0.2,0.9-0.7,1.8
			C78.6,37.5,78,38.3,77.6,38.3z M86.4,41.5c-0.4,0.6-0.6,1-0.7,0.9c-0.1-0.1,0-0.6,0.3-1.2c0.3-0.5,0.7-1,1.3-1.4
			C87,40.4,86.7,41.1,86.4,41.5z"/>
	</g>
</g>
</svg>
